<?xml version="1.0" encoding="UTF-8"?>
<svg id="Layer_1" data-name="Layer 1" xmlns="http://www.w3.org/2000/svg" xmlns:xlink="http://www.w3.org/1999/xlink" viewBox="0 0 318.69 304.64">
  <defs>
    <style>
      .cls-1, .cls-2, .cls-3 {
        font-size: 6.48px;
      }

      .cls-1, .cls-4 {
        font-family: MathematicaSans, MathematicaSans;
      }

      .cls-5 {
        clip-path: url(#clippath);
      }

      .cls-6 {
        stroke-width: 0px;
      }

      .cls-6, .cls-7, .cls-8, .cls-9, .cls-10, .cls-11 {
        fill: none;
      }

      .cls-12, .cls-13 {
        font-size: 6.65px;
      }

      .cls-12, .cls-14, .cls-3 {
        font-family: Arial-ItalicMT, Arial;
        font-style: italic;
      }

      .cls-2, .cls-13, .cls-15, .cls-16 {
        font-family: ArialMT, Arial;
      }

      .cls-17 {
        letter-spacing: 0em;
      }

      .cls-18 {
        clip-path: url(#clippath-1);
      }

      .cls-19 {
        clip-path: url(#clippath-2);
      }

      .cls-20 {
        font-family: MyriadPro-Regular, 'Myriad Pro';
        font-size: 12px;
      }

      .cls-21 {
        letter-spacing: 0em;
      }

      .cls-4, .cls-14, .cls-16 {
        font-size: 9.36px;
      }

      .cls-7 {
        stroke: #e19c24;
        stroke-dasharray: 0 0 0 0 .72 2.88 2.88 2.88;
      }

      .cls-7, .cls-8, .cls-9, .cls-10, .cls-11 {
        stroke-miterlimit: 3.25;
      }

      .cls-7, .cls-8, .cls-10, .cls-11 {
        stroke-width: 1.44px;
      }

      .cls-8 {
        stroke: #5e81b5;
        stroke-dasharray: 0 0 2.88 2.88;
      }

      .cls-9 {
        stroke: #000;
        stroke-width: .36px;
      }

      .cls-15 {
        font-size: 4.6px;
      }

      .cls-10 {
        stroke: #eb6235;
      }

      .cls-10, .cls-11 {
        stroke-linecap: square;
      }

      .cls-11 {
        stroke: #8fb032;
      }
    </style>
    <clipPath id="clippath">
      <rect class="cls-6" x="9.87" y="155.35" width="1" height="146.56"/>
    </clipPath>
    <clipPath id="clippath-1">
      <rect class="cls-6" x="261.99" y="152.91" width="14.4" height="1.64"/>
    </clipPath>
    <clipPath id="clippath-2">
      <rect class="cls-6" x="261.99" y="168.91" width="14.62" height="2.41"/>
    </clipPath>
  </defs>
  <g>
    <line class="cls-8" x1="11.17" y1="16.18" x2="232.8" y2="16.18"/>
    <line class="cls-7" x1="11.17" y1="16.18" x2="232.8" y2="16.18"/>
    <polyline class="cls-11" points="11.17 16.18 11.23 16.26 11.31 16.34 11.44 16.49 11.71 16.81 12.25 17.44 13.34 18.7 15.52 21.22 20.23 26.68 24.64 31.79 28.96 36.79 33.64 42.22 38.01 47.28 42.75 52.77 47.4 58.16 51.73 63.19 56.44 68.64 60.83 73.73 65.13 78.72 69.81 84.13 74.16 89.18 78.89 94.65 83.52 100.03 87.85 105.04 92.54 110.47 96.92 115.55 101.66 121.05 106.32 126.44 110.67 131.48 115.38 136.94 115.44 137.02 115.52 137.1 115.65 137.26 115.93 137.58 116.48 138.21 117.58 139.49 117.64 139.57 117.71 139.65 117.85 139.81 118.13 140.13 118.68 140.76 119.78 142.04 119.91 142.19 120.05 142.35 120.86 143.29 120.99 143.44 121.12 143.6 121.39 143.91 121.53 144.07 121.66 144.22 121.8 144.38 121.87 144.46 121.93 144.54 122 144.58 122.07 144.5 122.14 144.42 122.34 144.18 122.47 144.03 122.61 143.87 122.74 143.72 124.09 142.15 124.16 142.07 124.23 141.99 124.38 141.81 124.68 141.48 125.26 140.8 126.43 139.44 128.77 136.73 133.13 131.67 137.87 126.19 142.51 120.81 146.84 115.79 151.54 110.34 155.93 105.26 160.23 100.27 164.9 94.87 169.25 89.82 173.97 84.35 178.38 79.25 182.7 74.24 187.38 68.81 191.75 63.74 196.49 58.25 201.15 52.86 205.49 47.83 210.2 42.38 214.59 37.28 218.9 32.29 223.57 26.88 227.93 21.82 228.01 21.73 228.08 21.65 228.23 21.47 228.54 21.11 229.15 20.41 230.36 19 230.44 18.91 230.52 18.83 230.67 18.65 230.97 18.29 231.58 17.59 231.66 17.5 231.73 17.42 231.89 17.24 232.19 16.88 232.27 16.8 232.34 16.71 232.49 16.53 232.57 16.44 232.65 16.36 232.72 16.27 232.8 16.18"/>
    <polyline class="cls-10" points="11.17 80.39 11.23 80.43 11.31 80.47 11.44 80.54 11.71 80.7 12.25 81.02 13.34 81.65 15.52 82.91 20.23 85.64 24.64 88.19 28.96 90.69 33.64 93.41 38.01 95.94 42.75 98.68 47.4 101.38 51.73 103.89 56.44 106.62 60.83 109.16 65.13 111.65 69.81 114.36 74.16 116.89 78.89 119.62 83.52 122.31 87.85 124.82 92.54 127.53 96.92 130.07 101.66 132.82 106.32 135.52 110.67 138.04 115.38 140.77 115.44 140.81 115.52 140.85 115.65 140.93 115.93 141.09 116.48 141.4 117.58 142.04 117.64 142.08 117.71 142.12 117.85 142.2 118.13 142.36 118.68 142.68 119.78 143.31 119.91 143.39 120.05 143.47 120.86 143.94 120.99 144.02 121.12 144.1 121.39 144.25 121.53 144.33 121.66 144.41 121.8 144.49 121.87 144.52 121.93 144.56 122 144.58 122.07 144.54 122.14 144.51 122.34 144.39 122.47 144.31 122.61 144.23 122.74 144.15 124.09 143.37 124.16 143.33 124.23 143.29 124.38 143.2 124.68 143.04 125.26 142.7 126.43 142.02 128.77 140.66 133.13 138.13 137.87 135.39 142.51 132.7 146.84 130.19 151.54 127.47 155.93 124.93 160.23 122.43 164.9 119.73 169.25 117.21 173.97 114.47 178.38 111.92 182.7 109.42 187.38 106.7 191.75 104.17 196.49 101.42 201.15 98.73 205.49 96.21 210.2 93.49 214.59 90.94 218.9 88.44 223.57 85.74 227.93 83.21 228.01 83.17 228.08 83.12 228.23 83.03 228.54 82.86 229.15 82.5 230.36 81.8 230.44 81.76 230.52 81.71 230.67 81.62 230.97 81.45 231.58 81.09 231.66 81.05 231.73 81.01 231.89 80.92 232.19 80.74 232.27 80.7 232.34 80.65 232.49 80.56 232.57 80.52 232.65 80.47 232.72 80.43 232.8 80.39"/>
    <line class="cls-9" x1="11.17" y1="144.6" x2="11.17" y2="141.87"/>
    <line class="cls-9" x1="22.25" y1="144.6" x2="22.25" y2="142.96"/>
    <line class="cls-9" x1="33.33" y1="144.6" x2="33.33" y2="142.96"/>
    <line class="cls-9" x1="44.41" y1="144.6" x2="44.41" y2="142.96"/>
    <line class="cls-9" x1="55.5" y1="144.6" x2="55.5" y2="141.87"/>
    <text class="cls-2" transform="translate(50.99 152.62)"><tspan x="0" y="0">0.2</tspan></text>
    <line class="cls-9" x1="66.57" y1="144.6" x2="66.57" y2="142.96"/>
    <line class="cls-9" x1="77.66" y1="144.6" x2="77.66" y2="142.96"/>
    <line class="cls-9" x1="88.74" y1="144.6" x2="88.74" y2="142.96"/>
    <line class="cls-9" x1="99.82" y1="144.6" x2="99.82" y2="141.87"/>
    <text class="cls-2" transform="translate(95.32 152.62)"><tspan x="0" y="0">0.4</tspan></text>
    <line class="cls-9" x1="110.9" y1="144.6" x2="110.9" y2="142.96"/>
    <line class="cls-9" x1="121.98" y1="144.6" x2="121.98" y2="142.96"/>
    <line class="cls-9" x1="133.07" y1="144.6" x2="133.07" y2="142.96"/>
    <line class="cls-9" x1="144.15" y1="144.6" x2="144.15" y2="141.87"/>
    <text class="cls-2" transform="translate(139.64 152.62)"><tspan x="0" y="0">0.6</tspan></text>
    <line class="cls-9" x1="155.23" y1="144.6" x2="155.23" y2="142.96"/>
    <line class="cls-9" x1="166.31" y1="144.6" x2="166.31" y2="142.96"/>
    <line class="cls-9" x1="177.39" y1="144.6" x2="177.39" y2="142.96"/>
    <line class="cls-9" x1="188.47" y1="144.6" x2="188.47" y2="141.87"/>
    <text class="cls-2" transform="translate(183.97 152.62)"><tspan x="0" y="0">0.8</tspan></text>
    <line class="cls-9" x1="199.55" y1="144.6" x2="199.55" y2="142.96"/>
    <line class="cls-9" x1="210.64" y1="144.6" x2="210.64" y2="142.96"/>
    <line class="cls-9" x1="221.72" y1="144.6" x2="221.72" y2="142.96"/>
    <line class="cls-9" x1="232.8" y1="144.6" x2="232.8" y2="141.87"/>
    <text class="cls-2" transform="translate(228.29 152.62)"><tspan x="0" y="0">1.0</tspan></text>
    <line class="cls-9" x1="6.55" y1="144.6" x2="237.41" y2="144.6"/>
    <text class="cls-3" transform="translate(243.18 146.84)"><tspan x="0" y="0">n</tspan></text>
    <text class="cls-15" transform="translate(246.78 148.03)"><tspan x="0" y="0">1</tspan></text>
    <text class="cls-1" transform="translate(249.7 146.84)"><tspan x="0" y="0">(</tspan></text>
    <text class="cls-1" transform="translate(251.86 146.84)"><tspan x="0" y="0">∞</tspan></text>
    <text class="cls-1" transform="translate(257.04 146.84)"><tspan x="0" y="0">)</tspan></text>
    <line class="cls-9" x1="11.17" y1="151.01" x2="12.8" y2="151.01"/>
    <line class="cls-9" x1="11.17" y1="144.6" x2="13.89" y2="144.6"/>
    <line class="cls-9" x1="11.17" y1="138.17" x2="12.8" y2="138.17"/>
    <line class="cls-9" x1="11.17" y1="131.75" x2="12.8" y2="131.75"/>
    <line class="cls-9" x1="11.17" y1="125.33" x2="12.8" y2="125.33"/>
    <line class="cls-9" x1="11.17" y1="118.91" x2="12.8" y2="118.91"/>
    <line class="cls-9" x1="11.17" y1="112.49" x2="13.89" y2="112.49"/>
    <text class="cls-2" transform="translate(0 114.74)"><tspan x="0" y="0">0.5</tspan></text>
    <line class="cls-9" x1="11.17" y1="106.07" x2="12.8" y2="106.07"/>
    <line class="cls-9" x1="11.17" y1="99.65" x2="12.8" y2="99.65"/>
    <line class="cls-9" x1="11.17" y1="93.23" x2="12.8" y2="93.23"/>
    <line class="cls-9" x1="11.17" y1="86.81" x2="12.8" y2="86.81"/>
    <line class="cls-9" x1="11.17" y1="80.39" x2="13.89" y2="80.39"/>
    <text class="cls-2" transform="translate(0 82.63)"><tspan x="0" y="0">1.0</tspan></text>
    <line class="cls-9" x1="11.17" y1="73.97" x2="12.8" y2="73.97"/>
    <line class="cls-9" x1="11.17" y1="67.54" x2="12.8" y2="67.54"/>
    <line class="cls-9" x1="11.17" y1="61.13" x2="12.8" y2="61.13"/>
    <line class="cls-9" x1="11.17" y1="54.7" x2="12.8" y2="54.7"/>
    <line class="cls-9" x1="11.17" y1="48.28" x2="13.89" y2="48.28"/>
    <text class="cls-2" transform="translate(0 50.53)"><tspan x="0" y="0">1.5</tspan></text>
    <line class="cls-9" x1="11.17" y1="41.86" x2="12.8" y2="41.86"/>
    <line class="cls-9" x1="11.17" y1="35.44" x2="12.8" y2="35.44"/>
    <line class="cls-9" x1="11.17" y1="29.02" x2="12.8" y2="29.02"/>
    <line class="cls-9" x1="11.17" y1="22.6" x2="12.8" y2="22.6"/>
    <line class="cls-9" x1="11.17" y1="16.18" x2="13.89" y2="16.18"/>
    <text class="cls-2" transform="translate(0 18.43)"><tspan x="0" y="0">2.0</tspan></text>
    <line class="cls-9" x1="11.17" y1="9.76" x2="12.8" y2="9.76"/>
    <line class="cls-9" x1="11.17" y1="151.73" x2="11.17" y2="9.04"/>
  </g>
  <g>
    <polyline class="cls-8" points="10.64 163.03 10.71 163.09 10.78 163.15 10.92 163.27 11.19 163.51 11.75 163.99 12.87 164.92 15.09 166.74 19.92 170.42 24.43 173.59 28.85 176.47 33.64 179.38 38.12 181.9 42.97 184.46 47.73 186.81 52.17 188.87 56.99 190.97 61.48 192.83 65.89 194.56 70.67 196.34 75.14 197.91 79.97 199.54 84.72 201.06 89.15 202.41 93.95 203.81 98.44 205.06 103.3 206.36 108.06 207.58 112.51 208.68 117.33 209.83 121.84 210.85 126.26 211.82 131.05 212.84 135.51 213.76 140.36 214.71 145.12 215.62 149.55 216.44 154.37 217.3 158.85 218.08 163.26 218.82 168.03 219.6 172.49 220.31 177.33 221.05 181.84 221.72 186.26 222.37 191.06 223.05 195.54 223.67 200.39 224.31 205.15 224.93 209.6 225.5 214.42 226.1 218.92 226.64 223.33 227.17 228.11 227.72 232.58 228.22 232.73 228.24 232.89 228.26 233.2 228.29 233.82 228.36 235.07 228.49 235.15 228.51 235.38 228.53 235.69 228.56 236.31 228.63 236.39 228.64 236.63 228.67 236.94 228.7 237.1 228.72 237.25 228.73 237.33 228.74 237.56 228.77"/>
    <polyline class="cls-7" points="10.64 228.77 10.71 228.8 10.78 228.83 10.92 228.89 11.19 229.01 11.75 229.25 12.87 229.72 15.09 230.62 19.92 232.47 24.43 234.05 28.85 235.49 33.64 236.94 38.12 238.2 42.97 239.49 47.73 240.66 52.17 241.69 56.99 242.74 61.48 243.67 65.89 244.53 70.67 245.42 75.14 246.21 79.97 247.02 84.72 247.78 89.15 248.46 93.95 249.16 98.44 249.79 103.3 250.43 108.06 251.05 112.51 251.6 117.33 252.17 121.84 252.68 126.26 253.17 131.05 253.67 135.51 254.13 140.36 254.61 145.12 255.06 149.55 255.47 154.37 255.9 158.85 256.29 163.26 256.67 168.03 257.06 172.49 257.41 177.33 257.78 181.84 258.11 186.26 258.44 191.06 258.78 195.54 259.09 200.39 259.41 205.15 259.72 209.6 260.01 214.42 260.3 218.92 260.58 223.33 260.84 228.11 261.11 232.58 261.36 232.89 261.38 233.2 261.4 233.82 261.43 235.07 261.5 235.38 261.52 235.69 261.54 236.31 261.57 237.1 261.61 237.25 261.62 237.56 261.64"/>
    <polyline class="cls-11" points="10.64 228.77 10.71 228.86 10.78 228.95 10.92 229.13 11.19 229.49 11.75 230.21 12.87 231.62 15.09 234.38 19.92 240.08 24.43 245.07 28.85 249.7 33.64 254.45 38.12 258.66 42.97 263.01 47.73 267.06 52.17 270.69 56.99 274.46 61.48 277.85 65.89 281.04 70.67 284.38 75.14 287.39 79.97 290.55 80.05 290.6 80.27 290.74 80.56 290.93 81.16 291.31 82.35 292.06 82.94 292.43 83.53 292.81 84.72 293.54 84.86 293.63 85 293.72 85.28 293.89 85.35 293.93 85.41 293.97 85.55 294.06 85.83 294.23 86.04 294.36 86.1 294.4 86.24 294.49 86.31 294.49 86.38 294.45 86.52 294.36 86.66 294.27 86.94 294.11 87.01 294.06 87.07 294.02 87.21 293.93 87.49 293.77 88.04 293.43 89.15 292.76 89.23 292.72 89.3 292.67 89.45 292.58 89.75 292.4 91.55 291.32 93.95 289.91 98.44 287.32 103.3 284.6 108.06 281.99 112.51 279.63 117.33 277.12 121.84 274.85 126.26 272.66 131.05 270.34 135.51 268.22 140.36 265.98 145.12 263.83 149.55 261.86 154.37 259.76 158.85 257.84 163.26 255.99 168.03 254.02 172.49 252.22 177.33 250.3 181.84 248.53 186.26 246.83 191.06 245.01 195.54 243.35 200.39 241.56 205.15 239.84 209.6 238.26 214.42 236.56 218.92 235.01 223.33 233.5 228.11 231.89 232.58 230.4 232.65 230.38 232.73 230.35 232.89 230.3 233.2 230.2 233.82 229.99 235.07 229.58 235.15 229.56 235.23 229.53 235.38 229.48 235.69 229.38 236.31 229.17 236.39 229.15 236.47 229.12 236.94 228.97 237.02 228.95 237.1 228.92 237.25 228.87 237.33 228.85 237.4 228.82 237.48 228.79 237.56 228.77"/>
    <polyline class="cls-10" points="10.64 261.64 10.71 261.68 10.78 261.73 10.92 261.82 11.19 262 11.75 262.36 12.87 263.06 15.09 264.45 19.92 267.29 24.43 269.79 28.85 272.1 33.64 274.48 38.12 276.58 42.97 278.76 47.73 280.79 52.17 282.6 56.99 284.49 61.48 286.18 65.89 287.77 70.67 289.45 75.14 290.95 79.97 292.53 80.27 292.62 80.56 292.72 83.53 293.66 84.72 294.03 84.79 294.05 84.86 294.07 85 294.11 85.28 294.2 85.35 294.22 85.41 294.24 85.55 294.28 85.83 294.37 85.9 294.39 85.97 294.41 86.04 294.43 86.1 294.45 86.17 294.48 86.24 294.5 86.31 294.5 86.38 294.48 86.45 294.45 86.52 294.43 86.66 294.39 86.94 294.31 87.01 294.29 87.07 294.26 87.21 294.22 87.49 294.14 88.04 293.97 89.15 293.63 89.3 293.59 89.45 293.54 89.75 293.45 91.55 292.92 93.95 292.21 98.44 290.92 103.3 289.55 108.06 288.25 112.51 287.07 117.33 285.81 121.84 284.68 126.26 283.58 131.05 282.42 135.51 281.37 140.36 280.24 145.12 279.17 149.55 278.18 154.37 277.13 158.85 276.17 163.26 275.25 168.03 274.27 172.49 273.36 177.33 272.4 181.84 271.52 186.26 270.67 191.06 269.76 195.54 268.93 200.39 268.04 205.15 267.17 209.6 266.38 214.42 265.54 218.92 264.76 223.33 264.01 228.11 263.2 232.58 262.45 232.73 262.43 232.89 262.4 233.2 262.35 233.82 262.25 235.07 262.04 235.23 262.02 235.38 261.99 235.69 261.94 236.31 261.84 236.47 261.82 236.63 261.79 236.94 261.74 237.02 261.73 237.1 261.71 237.25 261.69 237.33 261.68 237.4 261.66 237.56 261.64"/>
    <line class="cls-9" x1="10.64" y1="294.51" x2="10.64" y2="291.72"/>
    <line class="cls-9" x1="21.98" y1="294.51" x2="21.98" y2="292.84"/>
    <line class="cls-9" x1="33.33" y1="294.51" x2="33.33" y2="292.84"/>
    <line class="cls-9" x1="44.67" y1="294.51" x2="44.67" y2="292.84"/>
    <line class="cls-9" x1="56.02" y1="294.51" x2="56.02" y2="291.72"/>
    <text class="cls-2" transform="translate(51.52 302.53)"><tspan x="0" y="0">0.2</tspan></text>
    <line class="cls-9" x1="67.37" y1="294.51" x2="67.37" y2="292.84"/>
    <line class="cls-9" x1="78.71" y1="294.51" x2="78.71" y2="292.84"/>
    <line class="cls-9" x1="90.06" y1="294.51" x2="90.06" y2="292.84"/>
    <line class="cls-9" x1="101.41" y1="294.51" x2="101.41" y2="291.72"/>
    <text class="cls-2" transform="translate(96.9 302.53)"><tspan x="0" y="0">0.4</tspan></text>
    <line class="cls-9" x1="112.75" y1="294.51" x2="112.75" y2="292.84"/>
    <line class="cls-9" x1="124.1" y1="294.51" x2="124.1" y2="292.84"/>
    <line class="cls-9" x1="135.44" y1="294.51" x2="135.44" y2="292.84"/>
    <line class="cls-9" x1="146.79" y1="294.51" x2="146.79" y2="291.72"/>
    <text class="cls-2" transform="translate(142.29 302.53)"><tspan x="0" y="0">0.6</tspan></text>
    <line class="cls-9" x1="158.14" y1="294.51" x2="158.14" y2="292.84"/>
    <line class="cls-9" x1="169.48" y1="294.51" x2="169.48" y2="292.84"/>
    <line class="cls-9" x1="180.83" y1="294.51" x2="180.83" y2="292.84"/>
    <line class="cls-9" x1="192.18" y1="294.51" x2="192.18" y2="291.72"/>
    <text class="cls-2" transform="translate(187.67 302.53)"><tspan x="0" y="0">0.8</tspan></text>
    <line class="cls-9" x1="203.52" y1="294.51" x2="203.52" y2="292.84"/>
    <line class="cls-9" x1="214.87" y1="294.51" x2="214.87" y2="292.84"/>
    <line class="cls-9" x1="226.22" y1="294.51" x2="226.22" y2="292.84"/>
    <line class="cls-9" x1="237.56" y1="294.51" x2="237.56" y2="291.72"/>
    <text class="cls-2" transform="translate(233.06 302.53)"><tspan x="0" y="0">1.0</tspan></text>
    <line class="cls-9" x1="5.91" y1="294.51" x2="242.29" y2="294.51"/>
    <text class="cls-3" transform="translate(248.05 296.75)"><tspan x="0" y="0">n</tspan></text>
    <text class="cls-15" transform="translate(251.65 297.95)"><tspan x="0" y="0">1</tspan></text>
    <text class="cls-1" transform="translate(254.57 296.75)"><tspan x="0" y="0">(</tspan></text>
    <text class="cls-1" transform="translate(256.73 296.75)"><tspan x="0" y="0">∞</tspan></text>
    <text class="cls-1" transform="translate(261.91 296.75)"><tspan x="0" y="0">)</tspan></text>
    <line class="cls-9" x1="10.64" y1="301.08" x2="12.31" y2="301.08"/>
    <line class="cls-9" x1="10.64" y1="294.51" x2="13.42" y2="294.51"/>
    <line class="cls-9" x1="10.64" y1="287.93" x2="12.31" y2="287.93"/>
    <line class="cls-9" x1="10.64" y1="281.36" x2="12.31" y2="281.36"/>
    <line class="cls-9" x1="10.64" y1="274.79" x2="12.31" y2="274.79"/>
    <line class="cls-9" x1="10.64" y1="268.21" x2="12.31" y2="268.21"/>
    <line class="cls-9" x1="10.64" y1="261.64" x2="13.42" y2="261.64"/>
    <text class="cls-2" transform="translate(4.87 263.88)"><tspan x="0" y="0">1</tspan></text>
    <line class="cls-9" x1="10.64" y1="255.06" x2="12.31" y2="255.06"/>
    <line class="cls-9" x1="10.64" y1="248.49" x2="12.31" y2="248.49"/>
    <line class="cls-9" x1="10.64" y1="241.92" x2="12.31" y2="241.92"/>
    <line class="cls-9" x1="10.64" y1="235.34" x2="12.31" y2="235.34"/>
    <line class="cls-9" x1="10.64" y1="228.77" x2="13.42" y2="228.77"/>
    <text class="cls-2" transform="translate(4.87 231.01)"><tspan x="0" y="0">2</tspan></text>
    <line class="cls-9" x1="10.64" y1="222.19" x2="12.31" y2="222.19"/>
    <line class="cls-9" x1="10.64" y1="215.62" x2="12.31" y2="215.62"/>
    <line class="cls-9" x1="10.64" y1="209.04" x2="12.31" y2="209.04"/>
    <line class="cls-9" x1="10.64" y1="202.47" x2="12.31" y2="202.47"/>
    <line class="cls-9" x1="10.64" y1="195.9" x2="13.42" y2="195.9"/>
    <text class="cls-2" transform="translate(4.87 198.14)"><tspan x="0" y="0">3</tspan></text>
    <line class="cls-9" x1="10.64" y1="189.32" x2="12.31" y2="189.32"/>
    <line class="cls-9" x1="10.64" y1="182.75" x2="12.31" y2="182.75"/>
    <line class="cls-9" x1="10.64" y1="176.17" x2="12.31" y2="176.17"/>
    <line class="cls-9" x1="10.64" y1="169.6" x2="12.31" y2="169.6"/>
    <line class="cls-9" x1="10.64" y1="163.03" x2="13.42" y2="163.03"/>
    <text class="cls-2" transform="translate(4.87 165.27)"><tspan x="0" y="0">4</tspan></text>
    <line class="cls-9" x1="10.64" y1="156.45" x2="12.31" y2="156.45"/>
    <g class="cls-5">
      <line class="cls-9" x1="10.64" y1="301.81" x2="10.64" y2="155.72"/>
    </g>
  </g>
  <g>
    <line class="cls-8" x1="262.94" y1="120.76" x2="276.62" y2="120.76"/>
    <text class="cls-14" transform="translate(279.7 123.26)"><tspan x="0" y="0">u</tspan></text>
    <text class="cls-13" transform="translate(284.9 124.98)"><tspan x="0" y="0">1</tspan></text>
    <line class="cls-7" x1="262.94" y1="137.25" x2="276.62" y2="137.25"/>
    <text class="cls-14" transform="translate(279.7 139.75)"><tspan x="0" y="0">u</tspan></text>
    <text class="cls-13" transform="translate(284.9 141.47)"><tspan x="0" y="0">2</tspan></text>
    <g class="cls-18">
      <line class="cls-11" x1="262.47" y1="153.58" x2="276.15" y2="153.58"/>
    </g>
    <text class="cls-16" transform="translate(279.7 156.23)"><tspan x="0" y="0">U</tspan></text>
    <g class="cls-19">
      <line class="cls-10" x1="262.47" y1="169.96" x2="276.37" y2="169.96"/>
    </g>
    <text class="cls-16" transform="translate(279.7 172.72)"><tspan x="0" y="0">U</tspan></text>
    <text class="cls-4" transform="translate(289.06 172.72)"><tspan x="0" y="0">/</tspan></text>
    <text class="cls-14" transform="translate(294.25 172.72)"><tspan x="0" y="0">V</tspan></text>
    <text class="cls-12" transform="translate(300.63 174.44)"><tspan x="0" y="0">A</tspan></text>
    <text class="cls-4" transform="translate(305.43 172.72)"><tspan x="0" y="0">(</tspan></text>
    <text class="cls-4" transform="translate(308.54 172.72)"><tspan x="0" y="0">∞</tspan></text>
    <text class="cls-4" transform="translate(316.03 172.72)"><tspan x="0" y="0">)</tspan></text>
  </g>
  <text class="cls-20" transform="translate(16.19 10.04)"><tspan x="0" y="0">(a)</tspan></text>
  <text class="cls-20" transform="translate(16.96 160.63)"><tspan x="0" y="0">(</tspan><tspan class="cls-17" x="3.41" y="0">b</tspan><tspan class="cls-21" x="10.2" y="0">)</tspan></text>
</svg>