<?xml version="1.0" encoding="utf-8" standalone="no"?>
<!DOCTYPE svg PUBLIC "-//W3C//DTD SVG 1.1//EN"
  "http://www.w3.org/Graphics/SVG/1.1/DTD/svg11.dtd">
<svg xmlns:xlink="http://www.w3.org/1999/xlink" width="414.770223pt" height="598.529236pt" viewBox="0 0 414.770223 598.529236" xmlns="http://www.w3.org/2000/svg" version="1.1">
 <metadata>
  <rdf:RDF xmlns:dc="http://purl.org/dc/elements/1.1/" xmlns:cc="http://creativecommons.org/ns#" xmlns:rdf="http://www.w3.org/1999/02/22-rdf-syntax-ns#">
   <cc:Work>
    <dc:type rdf:resource="http://purl.org/dc/dcmitype/StillImage"/>
    <dc:date>2024-11-22T14:51:28.841741</dc:date>
    <dc:format>image/svg+xml</dc:format>
    <dc:creator>
     <cc:Agent>
      <dc:title>Matplotlib v3.9.2, https://matplotlib.org/</dc:title>
     </cc:Agent>
    </dc:creator>
   </cc:Work>
  </rdf:RDF>
 </metadata>
 <defs>
  <style type="text/css">*{stroke-linejoin: round; stroke-linecap: butt}</style>
 </defs>
 <g id="figure_1">
  <g id="patch_1">
   <path d="M 0 598.529236 
L 414.770223 598.529236 
L 414.770223 0 
L 0 0 
z
" style="fill: #ffffff"/>
  </g>
  <g id="axes_1">
   <g id="patch_2">
    <path d="M 70.5325 128.790907 
L 362.644617 128.790907 
L 362.644617 3.6 
L 70.5325 3.6 
z
" style="fill: #ffffff"/>
   </g>
   <g id="line2d_1">
    <path d="M 70.532509 84.473993 
L 74.589584 100.572647 
L 78.646667 108.897723 
L 82.703754 115.211357 
L 86.759567 113.415099 
L 90.81665 115.571956 
L 94.87373 115.546928 
L 98.930813 118.358332 
L 102.9879 103.262563 
L 107.044975 94.575446 
L 111.102058 95.282197 
L 115.159153 95.193278 
L 119.219498 92.716108 
L 123.276577 90.252436 
L 127.333652 80.733224 
L 131.390736 77.533827 
L 135.447823 76.121119 
L 139.504898 75.747136 
L 143.561985 77.215774 
L 147.619068 77.423209 
L 151.674881 75.703136 
L 155.731964 74.922281 
L 159.789047 74.490935 
L 163.846134 74.241669 
L 167.903214 73.50553 
L 171.960289 76.281088 
L 176.017376 77.548805 
L 180.074459 74.280171 
L 184.13028 73.916708 
L 188.187363 73.561139 
L 192.244438 71.04206 
L 196.301517 67.996046 
L 200.358608 75.790501 
L 204.415684 74.187985 
L 208.472763 72.656279 
L 212.529846 69.060816 
L 216.590195 63.888854 
L 220.647278 62.890667 
L 224.704365 62.356993 
L 228.761448 59.761234 
L 232.818527 61.953951 
L 236.875603 58.630967 
L 240.932693 60.469516 
L 244.989773 58.628568 
L 249.045593 57.833537 
L 253.10268 54.60624 
L 257.159752 56.314133 
L 261.216831 48.541377 
L 265.273922 52.304763 
L 269.330997 60.060573 
L 273.388077 55.577219 
L 277.44516 56.085041 
L 281.50098 53.817815 
L 285.558064 55.713041 
L 289.615143 50.435787 
L 293.67223 48.568326 
L 297.729305 49.51711 
L 301.786392 48.313766 
L 305.843475 47.553562 
L 309.900558 48.548865 
L 313.956371 49.501974 
L 318.013454 48.183624 
L 322.07053 47.805755 
L 326.127609 48.174477 
L 330.184692 46.731214 
L 334.241779 47.590394 
L 338.298862 50.829267 
L 342.355938 49.246295 
L 346.416294 48.529064 
L 350.473377 48.70129 
L 354.530457 49.194072 
L 358.58754 52.232575 
L 362.644627 49.766936 
" clip-path="url(#pecb9796ccc)" style="fill: none; stroke: #30a2da; stroke-width: 2; stroke-linecap: square"/>
   </g>
   <g id="line2d_2">
    <path d="M 70.532509 26.207904 
L 74.589584 29.137185 
L 78.646667 33.672 
L 82.703754 38.154522 
L 86.759567 40.591995 
L 90.81665 40.529228 
L 94.87373 40.097145 
L 98.930813 39.904819 
L 102.9879 31.897283 
L 107.044975 26.657645 
L 111.102058 26.514205 
L 115.159153 25.642704 
L 119.219498 24.871247 
L 123.276577 22.704384 
L 127.333652 21.027152 
L 131.390736 18.919286 
L 135.447823 18.715709 
L 139.504898 18.922514 
L 143.561985 18.405861 
L 147.619068 17.51972 
L 151.674881 18.013958 
L 155.731964 16.830663 
L 159.789047 17.018786 
L 163.846134 17.161885 
L 167.903214 17.613614 
L 171.960289 17.345998 
L 176.017376 19.059056 
L 180.074459 17.603951 
L 184.13028 18.688824 
L 188.187363 18.728914 
L 192.244438 19.339811 
L 196.301517 22.739272 
L 200.358608 22.310619 
L 204.415684 22.563073 
L 208.472763 22.041091 
L 212.529846 24.073616 
L 216.590195 23.364372 
L 220.647278 23.494989 
L 224.704365 21.712533 
L 228.761448 23.645613 
L 232.818527 22.905939 
L 236.875603 24.887525 
L 240.932693 22.190721 
L 244.989773 24.560664 
L 249.045593 24.589069 
L 253.10268 30.086515 
L 257.159752 30.66898 
L 261.216831 35.114981 
L 265.273922 30.902933 
L 269.330997 23.277518 
L 273.388077 27.270801 
L 277.44516 27.24654 
L 281.50098 29.200113 
L 285.558064 28.557034 
L 289.615143 31.50263 
L 293.67223 31.950284 
L 297.729305 31.278122 
L 301.786392 30.602911 
L 305.843475 33.578926 
L 309.900558 30.695216 
L 313.956371 31.76819 
L 318.013454 32.243842 
L 322.07053 32.415972 
L 326.127609 33.207704 
L 330.184692 34.140364 
L 334.241779 34.246108 
L 338.298862 31.906149 
L 342.355938 34.508143 
L 346.416294 35.167115 
L 350.473377 33.828658 
L 354.530457 32.437363 
L 358.58754 30.92634 
L 362.644627 33.687977 
" clip-path="url(#pecb9796ccc)" style="fill: none; stroke: #fc4f30; stroke-width: 2; stroke-linecap: square"/>
   </g>
   <g id="matplotlib.axis_1">
    <g id="ytick_1">
     <g id="line2d_3">
      <defs>
       <path id="macf5d4d431" d="M 0 0 
L 6 0 
" style="stroke: #000000"/>
      </defs>
      <g>
       <use xlink:href="#macf5d4d431" x="70.5325" y="78.736858" style="stroke: #000000"/>
      </g>
     </g>
     <g id="text_1">
      <!-- 0 -->
      <g transform="translate(56.8525 84.815608) scale(0.16 -0.16)">
       <defs>
        <path id="DejaVuSans-30" d="M 2034 4250 
Q 1547 4250 1301 3770 
Q 1056 3291 1056 2328 
Q 1056 1369 1301 889 
Q 1547 409 2034 409 
Q 2525 409 2770 889 
Q 3016 1369 3016 2328 
Q 3016 3291 2770 3770 
Q 2525 4250 2034 4250 
z
M 2034 4750 
Q 2819 4750 3233 4129 
Q 3647 3509 3647 2328 
Q 3647 1150 3233 529 
Q 2819 -91 2034 -91 
Q 1250 -91 836 529 
Q 422 1150 422 2328 
Q 422 3509 836 4129 
Q 1250 4750 2034 4750 
z
" transform="scale(0.015625)"/>
       </defs>
       <use xlink:href="#DejaVuSans-30"/>
      </g>
     </g>
    </g>
    <g id="ytick_2">
     <g id="line2d_4">
      <g>
       <use xlink:href="#macf5d4d431" x="70.5325" y="18.749257" style="stroke: #000000"/>
      </g>
     </g>
     <g id="text_2">
      <!-- 200 -->
      <g transform="translate(36.4925 24.828007) scale(0.16 -0.16)">
       <defs>
        <path id="DejaVuSans-32" d="M 1228 531 
L 3431 531 
L 3431 0 
L 469 0 
L 469 531 
Q 828 903 1448 1529 
Q 2069 2156 2228 2338 
Q 2531 2678 2651 2914 
Q 2772 3150 2772 3378 
Q 2772 3750 2511 3984 
Q 2250 4219 1831 4219 
Q 1534 4219 1204 4116 
Q 875 4013 500 3803 
L 500 4441 
Q 881 4594 1212 4672 
Q 1544 4750 1819 4750 
Q 2544 4750 2975 4387 
Q 3406 4025 3406 3419 
Q 3406 3131 3298 2873 
Q 3191 2616 2906 2266 
Q 2828 2175 2409 1742 
Q 1991 1309 1228 531 
z
" transform="scale(0.015625)"/>
       </defs>
       <use xlink:href="#DejaVuSans-32"/>
       <use xlink:href="#DejaVuSans-30" x="63.623047"/>
       <use xlink:href="#DejaVuSans-30" x="127.246094"/>
      </g>
     </g>
    </g>
    <g id="ytick_3">
     <g id="line2d_5">
      <defs>
       <path id="m6adf0a6257" d="M 0 0 
L 3 0 
" style="stroke: #000000"/>
      </defs>
      <g>
       <use xlink:href="#m6adf0a6257" x="70.5325" y="123.727558" style="stroke: #000000"/>
      </g>
     </g>
    </g>
    <g id="ytick_4">
     <g id="line2d_6">
      <g>
       <use xlink:href="#m6adf0a6257" x="70.5325" y="108.730658" style="stroke: #000000"/>
      </g>
     </g>
    </g>
    <g id="ytick_5">
     <g id="line2d_7">
      <g>
       <use xlink:href="#m6adf0a6257" x="70.5325" y="93.733758" style="stroke: #000000"/>
      </g>
     </g>
    </g>
    <g id="ytick_6">
     <g id="line2d_8">
      <g>
       <use xlink:href="#m6adf0a6257" x="70.5325" y="63.739957" style="stroke: #000000"/>
      </g>
     </g>
    </g>
    <g id="ytick_7">
     <g id="line2d_9">
      <g>
       <use xlink:href="#m6adf0a6257" x="70.5325" y="48.743057" style="stroke: #000000"/>
      </g>
     </g>
    </g>
    <g id="ytick_8">
     <g id="line2d_10">
      <g>
       <use xlink:href="#m6adf0a6257" x="70.5325" y="33.746157" style="stroke: #000000"/>
      </g>
     </g>
    </g>
    <g id="ytick_9">
     <g id="line2d_11">
      <g>
       <use xlink:href="#m6adf0a6257" x="70.5325" y="3.752357" style="stroke: #000000"/>
      </g>
     </g>
    </g>
    <g id="text_3">
     <!-- $B$ (nT) -->
     <g transform="translate(29.165 90.435454) rotate(-90) scale(0.16 -0.16)">
      <defs>
       <path id="DejaVuSans-Oblique-42" d="M 1081 4666 
L 2694 4666 
Q 3350 4666 3675 4422 
Q 4000 4178 4000 3688 
Q 4000 3238 3720 2911 
Q 3441 2584 2988 2516 
Q 3375 2428 3569 2181 
Q 3763 1934 3763 1522 
Q 3763 819 3242 409 
Q 2722 0 1819 0 
L 172 0 
L 1081 4666 
z
M 1234 2228 
L 903 519 
L 1919 519 
Q 2491 519 2800 781 
Q 3109 1044 3109 1522 
Q 3109 1891 2904 2059 
Q 2700 2228 2247 2228 
L 1234 2228 
z
M 1606 4147 
L 1331 2741 
L 2272 2741 
Q 2775 2741 3058 2959 
Q 3341 3178 3341 3566 
Q 3341 3869 3150 4008 
Q 2959 4147 2541 4147 
L 1606 4147 
z
" transform="scale(0.015625)"/>
       <path id="DejaVuSans-20" transform="scale(0.015625)"/>
       <path id="DejaVuSans-28" d="M 1984 4856 
Q 1566 4138 1362 3434 
Q 1159 2731 1159 2009 
Q 1159 1288 1364 580 
Q 1569 -128 1984 -844 
L 1484 -844 
Q 1016 -109 783 600 
Q 550 1309 550 2009 
Q 550 2706 781 3412 
Q 1013 4119 1484 4856 
L 1984 4856 
z
" transform="scale(0.015625)"/>
       <path id="DejaVuSans-6e" d="M 3513 2113 
L 3513 0 
L 2938 0 
L 2938 2094 
Q 2938 2591 2744 2837 
Q 2550 3084 2163 3084 
Q 1697 3084 1428 2787 
Q 1159 2491 1159 1978 
L 1159 0 
L 581 0 
L 581 3500 
L 1159 3500 
L 1159 2956 
Q 1366 3272 1645 3428 
Q 1925 3584 2291 3584 
Q 2894 3584 3203 3211 
Q 3513 2838 3513 2113 
z
" transform="scale(0.015625)"/>
       <path id="DejaVuSans-54" d="M -19 4666 
L 3928 4666 
L 3928 4134 
L 2272 4134 
L 2272 0 
L 1638 0 
L 1638 4134 
L -19 4134 
L -19 4666 
z
" transform="scale(0.015625)"/>
       <path id="DejaVuSans-29" d="M 513 4856 
L 1013 4856 
Q 1481 4119 1714 3412 
Q 1947 2706 1947 2009 
Q 1947 1309 1714 600 
Q 1481 -109 1013 -844 
L 513 -844 
Q 928 -128 1133 580 
Q 1338 1288 1338 2009 
Q 1338 2731 1133 3434 
Q 928 4138 513 4856 
z
" transform="scale(0.015625)"/>
      </defs>
      <use xlink:href="#DejaVuSans-Oblique-42" transform="translate(0 0.125)"/>
      <use xlink:href="#DejaVuSans-20" transform="translate(68.603516 0.125)"/>
      <use xlink:href="#DejaVuSans-28" transform="translate(100.390625 0.125)"/>
      <use xlink:href="#DejaVuSans-6e" transform="translate(139.404297 0.125)"/>
      <use xlink:href="#DejaVuSans-54" transform="translate(202.783203 0.125)"/>
      <use xlink:href="#DejaVuSans-29" transform="translate(263.867188 0.125)"/>
     </g>
    </g>
   </g>
   <g id="line2d_12">
    <path d="M 70.532509 100.444173 
L 74.589584 95.940327 
L 78.646667 95.038224 
L 82.703754 95.177701 
L 86.759567 102.204307 
L 90.81665 100.175204 
L 94.87373 98.597504 
L 98.930813 92.981037 
L 102.9879 94.793217 
L 107.044975 95.963461 
L 111.102058 96.240615 
L 115.159153 96.439663 
L 119.219498 97.633448 
L 123.276577 97.466072 
L 127.333652 97.477908 
L 131.390736 99.161805 
L 135.447823 97.892685 
L 139.504898 98.256522 
L 143.561985 98.482612 
L 147.619068 95.512649 
L 151.674881 97.449926 
L 155.731964 96.496458 
L 159.789047 96.235291 
L 163.846134 95.872936 
L 167.903214 98.755785 
L 171.960289 99.029114 
L 176.017376 100.01045 
L 180.074459 97.710655 
L 184.13028 100.122958 
L 188.187363 100.133215 
L 192.244438 96.365917 
L 196.301517 101.463918 
L 200.358608 102.654593 
L 204.415684 101.62388 
L 208.472763 99.771794 
L 212.529846 101.069959 
L 216.590195 98.307706 
L 220.647278 98.786342 
L 224.704365 94.888629 
L 228.761448 96.383197 
L 232.818527 95.559483 
L 236.875603 97.375429 
L 240.932693 95.600516 
L 244.989773 97.592384 
L 249.045593 97.241115 
L 253.10268 96.564487 
L 257.159752 96.037925 
L 261.216831 96.5491 
L 265.273922 93.032097 
L 269.330997 92.089018 
L 273.388077 92.553441 
L 277.44516 94.57196 
L 281.50098 94.987559 
L 285.558064 95.905875 
L 289.615143 97.739751 
L 293.67223 97.37437 
L 297.729305 94.896269 
L 301.786392 92.836351 
L 305.843475 96.114243 
L 309.900558 93.668704 
L 313.956371 94.441906 
L 318.013454 97.967658 
L 322.07053 97.153593 
L 326.127609 100.642458 
L 330.184692 99.0437 
L 334.241779 101.889115 
L 338.298862 97.56164 
L 342.355938 101.627625 
L 346.416294 104.395923 
L 350.473377 101.53608 
L 354.530457 98.964331 
L 358.58754 97.937329 
L 362.644627 99.426741 
" clip-path="url(#pecb9796ccc)" style="fill: none; stroke: #e5ae38; stroke-width: 2; stroke-linecap: square"/>
   </g>
   <g id="patch_3">
    <path d="M 70.5325 128.790907 
L 70.5325 3.6 
" style="fill: none; stroke: #000000; stroke-linejoin: miter; stroke-linecap: square"/>
   </g>
   <g id="line2d_13">
    <path d="M 70.532509 21.610566 
L 74.589584 21.878361 
L 78.646667 22.113067 
L 82.703754 21.748995 
L 86.759567 22.094716 
L 90.81665 21.498321 
L 94.87373 21.794308 
L 98.930813 21.459593 
L 102.9879 23.480522 
L 107.044975 21.641663 
L 111.102058 21.227421 
L 115.159153 20.399971 
L 119.219498 19.966077 
L 123.276577 18.545246 
L 127.333652 18.027529 
L 131.390736 15.516864 
L 135.447823 15.678741 
L 139.504898 15.747085 
L 143.561985 15.23853 
L 147.619068 15.249137 
L 151.674881 15.12355 
L 155.731964 14.220725 
L 159.789047 14.445775 
L 163.846134 14.664015 
L 167.903214 14.206437 
L 171.960289 14.032576 
L 176.017376 15.369538 
L 180.074459 14.572231 
L 184.13028 14.812171 
L 188.187363 14.818586 
L 192.244438 16.30287 
L 196.301517 17.355965 
L 200.358608 17.380036 
L 204.415684 17.909215 
L 208.472763 17.95979 
L 212.529846 18.899886 
L 216.590195 18.159688 
L 220.647278 17.87022 
L 224.704365 17.247401 
L 228.761448 17.85572 
L 232.818527 18.059365 
L 236.875603 18.310094 
L 240.932693 16.966766 
L 244.989773 17.950888 
L 249.045593 17.816095 
L 253.10268 21.57947 
L 257.159752 22.945941 
L 261.216831 22.773377 
L 265.273922 22.24709 
L 269.330997 18.713344 
L 273.388077 20.633313 
L 277.44516 20.297932 
L 281.50098 20.953356 
L 285.558064 20.919162 
L 289.615143 20.486254 
L 293.67223 20.030124 
L 297.729305 20.708831 
L 301.786392 20.0748 
L 305.843475 21.172891 
L 309.900558 20.065959 
L 313.956371 21.227009 
L 318.013454 19.87325 
L 322.07053 20.072271 
L 326.127609 19.687571 
L 330.184692 20.208435 
L 334.241779 19.69826 
L 338.298862 21.062588 
L 342.355938 20.858885 
L 346.416294 19.836765 
L 350.473377 20.096545 
L 354.530457 20.208488 
L 358.58754 20.797401 
L 362.644627 21.319707 
" clip-path="url(#pecb9796ccc)" style="fill: none; stroke: #6d904f; stroke-width: 2; stroke-linecap: square"/>
   </g>
   <g id="legend_1">
    <g id="text_4">
     <!-- $B_l$ -->
     <g style="fill: #30a2da" transform="translate(367.650223 30.1575) scale(0.16 -0.16)">
      <defs>
       <path id="DejaVuSans-Oblique-6c" d="M 1172 4863 
L 1747 4863 
L 800 0 
L 225 0 
L 1172 4863 
z
" transform="scale(0.015625)"/>
      </defs>
      <use xlink:href="#DejaVuSans-Oblique-42" transform="translate(0 0.09375)"/>
      <use xlink:href="#DejaVuSans-Oblique-6c" transform="translate(68.603516 -16.3125) scale(0.7)"/>
     </g>
    </g>
    <g id="text_5">
     <!-- $B_m$ -->
     <g style="fill: #fc4f30" transform="translate(367.650223 53.6425) scale(0.16 -0.16)">
      <defs>
       <path id="DejaVuSans-Oblique-6d" d="M 5747 2113 
L 5338 0 
L 4763 0 
L 5166 2094 
Q 5191 2228 5203 2325 
Q 5216 2422 5216 2491 
Q 5216 2772 5059 2928 
Q 4903 3084 4622 3084 
Q 4203 3084 3875 2770 
Q 3547 2456 3450 1953 
L 3066 0 
L 2491 0 
L 2900 2094 
Q 2925 2209 2937 2307 
Q 2950 2406 2950 2484 
Q 2950 2769 2794 2926 
Q 2638 3084 2363 3084 
Q 1938 3084 1609 2770 
Q 1281 2456 1184 1953 
L 800 0 
L 225 0 
L 909 3500 
L 1484 3500 
L 1375 2956 
Q 1609 3263 1923 3423 
Q 2238 3584 2597 3584 
Q 2978 3584 3223 3384 
Q 3469 3184 3519 2828 
Q 3781 3197 4126 3390 
Q 4472 3584 4856 3584 
Q 5306 3584 5551 3325 
Q 5797 3066 5797 2591 
Q 5797 2488 5784 2364 
Q 5772 2241 5747 2113 
z
" transform="scale(0.015625)"/>
      </defs>
      <use xlink:href="#DejaVuSans-Oblique-42" transform="translate(0 0.09375)"/>
      <use xlink:href="#DejaVuSans-Oblique-6d" transform="translate(68.603516 -16.3125) scale(0.7)"/>
     </g>
    </g>
    <g id="text_6">
     <!-- $B_n$ -->
     <g style="fill: #e5ae38" transform="translate(367.650223 77.1275) scale(0.16 -0.16)">
      <defs>
       <path id="DejaVuSans-Oblique-6e" d="M 3566 2113 
L 3156 0 
L 2578 0 
L 2988 2091 
Q 3016 2238 3031 2350 
Q 3047 2463 3047 2528 
Q 3047 2791 2881 2937 
Q 2716 3084 2419 3084 
Q 1956 3084 1622 2776 
Q 1288 2469 1184 1941 
L 800 0 
L 225 0 
L 903 3500 
L 1478 3500 
L 1363 2950 
Q 1603 3253 1940 3418 
Q 2278 3584 2650 3584 
Q 3113 3584 3367 3334 
Q 3622 3084 3622 2631 
Q 3622 2519 3608 2391 
Q 3594 2263 3566 2113 
z
" transform="scale(0.015625)"/>
      </defs>
      <use xlink:href="#DejaVuSans-Oblique-42" transform="translate(0 0.09375)"/>
      <use xlink:href="#DejaVuSans-Oblique-6e" transform="translate(68.603516 -16.3125) scale(0.7)"/>
     </g>
    </g>
    <g id="text_7">
     <!-- $B_{total}$ -->
     <g style="fill: #6d904f" transform="translate(367.650223 100.6125) scale(0.16 -0.16)">
      <defs>
       <path id="DejaVuSans-Oblique-74" d="M 2706 3500 
L 2619 3053 
L 1472 3053 
L 1100 1153 
Q 1081 1047 1072 975 
Q 1063 903 1063 863 
Q 1063 663 1183 572 
Q 1303 481 1569 481 
L 2150 481 
L 2053 0 
L 1503 0 
Q 991 0 739 200 
Q 488 400 488 806 
Q 488 878 497 964 
Q 506 1050 525 1153 
L 897 3053 
L 409 3053 
L 500 3500 
L 978 3500 
L 1172 4494 
L 1747 4494 
L 1556 3500 
L 2706 3500 
z
" transform="scale(0.015625)"/>
       <path id="DejaVuSans-Oblique-6f" d="M 1625 -91 
Q 1009 -91 651 289 
Q 294 669 294 1325 
Q 294 1706 417 2101 
Q 541 2497 738 2766 
Q 1047 3184 1428 3384 
Q 1809 3584 2291 3584 
Q 2888 3584 3255 3212 
Q 3622 2841 3622 2241 
Q 3622 1825 3500 1412 
Q 3378 1000 3181 728 
Q 2875 309 2494 109 
Q 2113 -91 1625 -91 
z
M 891 1344 
Q 891 869 1089 633 
Q 1288 397 1691 397 
Q 2269 397 2648 901 
Q 3028 1406 3028 2181 
Q 3028 2634 2825 2865 
Q 2622 3097 2228 3097 
Q 1903 3097 1650 2945 
Q 1397 2794 1197 2484 
Q 1050 2253 970 1956 
Q 891 1659 891 1344 
z
" transform="scale(0.015625)"/>
       <path id="DejaVuSans-Oblique-61" d="M 3438 1997 
L 3047 0 
L 2472 0 
L 2578 531 
Q 2325 219 2001 64 
Q 1678 -91 1281 -91 
Q 834 -91 548 182 
Q 263 456 263 884 
Q 263 1497 752 1853 
Q 1241 2209 2100 2209 
L 2900 2209 
L 2931 2363 
Q 2938 2388 2941 2417 
Q 2944 2447 2944 2509 
Q 2944 2788 2717 2942 
Q 2491 3097 2081 3097 
Q 1800 3097 1504 3025 
Q 1209 2953 897 2809 
L 997 3341 
Q 1322 3463 1633 3523 
Q 1944 3584 2234 3584 
Q 2853 3584 3176 3315 
Q 3500 3047 3500 2534 
Q 3500 2431 3484 2292 
Q 3469 2153 3438 1997 
z
M 2816 1759 
L 2241 1759 
Q 1534 1759 1195 1570 
Q 856 1381 856 984 
Q 856 709 1029 553 
Q 1203 397 1509 397 
Q 1978 397 2328 733 
Q 2678 1069 2791 1631 
L 2816 1759 
z
" transform="scale(0.015625)"/>
      </defs>
      <use xlink:href="#DejaVuSans-Oblique-42" transform="translate(0 0.09375)"/>
      <use xlink:href="#DejaVuSans-Oblique-74" transform="translate(68.603516 -16.3125) scale(0.7)"/>
      <use xlink:href="#DejaVuSans-Oblique-6f" transform="translate(96.049805 -16.3125) scale(0.7)"/>
      <use xlink:href="#DejaVuSans-Oblique-74" transform="translate(138.876953 -16.3125) scale(0.7)"/>
      <use xlink:href="#DejaVuSans-Oblique-61" transform="translate(166.323242 -16.3125) scale(0.7)"/>
      <use xlink:href="#DejaVuSans-Oblique-6c" transform="translate(209.21875 -16.3125) scale(0.7)"/>
     </g>
    </g>
   </g>
  </g>
  <g id="axes_2">
   <g id="patch_4">
    <path d="M 70.5325 271.347017 
L 362.644617 271.347017 
L 362.644617 146.15611 
L 70.5325 146.15611 
z
" style="fill: #ffffff"/>
   </g>
   <g id="line2d_14">
    <path d="M 76.624458 260.192343 
L 92.853283 260.914442 
L 109.08099 259.337 
L 125.309811 257.820827 
L 141.538635 256.796769 
L 157.766342 256.439207 
L 173.995163 256.177395 
L 190.223988 255.528671 
L 206.451694 255.885122 
L 222.680519 254.701064 
L 238.908226 254.139862 
L 255.137054 253.487345 
L 271.365871 253.965971 
L 287.593578 253.149213 
L 303.822407 253.139562 
L 320.051224 252.923511 
L 336.278938 252.750945 
L 352.507759 253.095415 
" clip-path="url(#p7dc2fd3621)" style="fill: none; stroke: #30a2da; stroke-width: 2; stroke-linecap: square"/>
   </g>
   <g id="line2d_15">
    <path d="M 76.624458 239.2792 
L 92.853283 240.717518 
L 109.08099 238.709587 
L 125.309811 237.714588 
L 141.538635 237.607176 
L 157.766342 237.18414 
L 173.995163 237.483125 
L 190.223988 237.776586 
L 206.451694 238.395457 
L 222.680519 239.490376 
L 238.908226 238.730451 
L 255.137054 239.40497 
L 271.365871 239.18269 
L 287.593578 238.818727 
L 303.822407 239.212632 
L 320.051224 239.51098 
L 336.278938 239.392928 
L 352.507759 239.205385 
" clip-path="url(#p7dc2fd3621)" style="fill: none; stroke: #fc4f30; stroke-width: 2; stroke-linecap: square"/>
   </g>
   <g id="matplotlib.axis_2">
    <g id="ytick_10">
     <g id="line2d_16">
      <g>
       <use xlink:href="#macf5d4d431" x="70.5325" y="248.502411" style="stroke: #000000"/>
      </g>
     </g>
     <g id="text_8">
      <!-- −250 -->
      <g transform="translate(23.085 254.581161) scale(0.16 -0.16)">
       <defs>
        <path id="DejaVuSans-2212" d="M 678 2272 
L 4684 2272 
L 4684 1741 
L 678 1741 
L 678 2272 
z
" transform="scale(0.015625)"/>
        <path id="DejaVuSans-35" d="M 691 4666 
L 3169 4666 
L 3169 4134 
L 1269 4134 
L 1269 2991 
Q 1406 3038 1543 3061 
Q 1681 3084 1819 3084 
Q 2600 3084 3056 2656 
Q 3513 2228 3513 1497 
Q 3513 744 3044 326 
Q 2575 -91 1722 -91 
Q 1428 -91 1123 -41 
Q 819 9 494 109 
L 494 744 
Q 775 591 1075 516 
Q 1375 441 1709 441 
Q 2250 441 2565 725 
Q 2881 1009 2881 1497 
Q 2881 1984 2565 2268 
Q 2250 2553 1709 2553 
Q 1456 2553 1204 2497 
Q 953 2441 691 2322 
L 691 4666 
z
" transform="scale(0.015625)"/>
       </defs>
       <use xlink:href="#DejaVuSans-2212"/>
       <use xlink:href="#DejaVuSans-32" x="83.789062"/>
       <use xlink:href="#DejaVuSans-35" x="147.412109"/>
       <use xlink:href="#DejaVuSans-30" x="211.035156"/>
      </g>
     </g>
    </g>
    <g id="ytick_11">
     <g id="line2d_17">
      <g>
       <use xlink:href="#macf5d4d431" x="70.5325" y="212.665867" style="stroke: #000000"/>
      </g>
     </g>
     <g id="text_9">
      <!-- 0 -->
      <g transform="translate(56.8525 218.744617) scale(0.16 -0.16)">
       <use xlink:href="#DejaVuSans-30"/>
      </g>
     </g>
    </g>
    <g id="ytick_12">
     <g id="line2d_18">
      <g>
       <use xlink:href="#macf5d4d431" x="70.5325" y="176.829323" style="stroke: #000000"/>
      </g>
     </g>
     <g id="text_10">
      <!-- 250 -->
      <g transform="translate(36.4925 182.908073) scale(0.16 -0.16)">
       <use xlink:href="#DejaVuSans-32"/>
       <use xlink:href="#DejaVuSans-35" x="63.623047"/>
       <use xlink:href="#DejaVuSans-30" x="127.246094"/>
      </g>
     </g>
    </g>
    <g id="ytick_13">
     <g id="line2d_19">
      <g>
       <use xlink:href="#m6adf0a6257" x="70.5325" y="270.004338" style="stroke: #000000"/>
      </g>
     </g>
    </g>
    <g id="ytick_14">
     <g id="line2d_20">
      <g>
       <use xlink:href="#m6adf0a6257" x="70.5325" y="262.837029" style="stroke: #000000"/>
      </g>
     </g>
    </g>
    <g id="ytick_15">
     <g id="line2d_21">
      <g>
       <use xlink:href="#m6adf0a6257" x="70.5325" y="255.66972" style="stroke: #000000"/>
      </g>
     </g>
    </g>
    <g id="ytick_16">
     <g id="line2d_22">
      <g>
       <use xlink:href="#m6adf0a6257" x="70.5325" y="241.335102" style="stroke: #000000"/>
      </g>
     </g>
    </g>
    <g id="ytick_17">
     <g id="line2d_23">
      <g>
       <use xlink:href="#m6adf0a6257" x="70.5325" y="234.167794" style="stroke: #000000"/>
      </g>
     </g>
    </g>
    <g id="ytick_18">
     <g id="line2d_24">
      <g>
       <use xlink:href="#m6adf0a6257" x="70.5325" y="227.000485" style="stroke: #000000"/>
      </g>
     </g>
    </g>
    <g id="ytick_19">
     <g id="line2d_25">
      <g>
       <use xlink:href="#m6adf0a6257" x="70.5325" y="219.833176" style="stroke: #000000"/>
      </g>
     </g>
    </g>
    <g id="ytick_20">
     <g id="line2d_26">
      <g>
       <use xlink:href="#m6adf0a6257" x="70.5325" y="205.498558" style="stroke: #000000"/>
      </g>
     </g>
    </g>
    <g id="ytick_21">
     <g id="line2d_27">
      <g>
       <use xlink:href="#m6adf0a6257" x="70.5325" y="198.331249" style="stroke: #000000"/>
      </g>
     </g>
    </g>
    <g id="ytick_22">
     <g id="line2d_28">
      <g>
       <use xlink:href="#m6adf0a6257" x="70.5325" y="191.16394" style="stroke: #000000"/>
      </g>
     </g>
    </g>
    <g id="ytick_23">
     <g id="line2d_29">
      <g>
       <use xlink:href="#m6adf0a6257" x="70.5325" y="183.996631" style="stroke: #000000"/>
      </g>
     </g>
    </g>
    <g id="ytick_24">
     <g id="line2d_30">
      <g>
       <use xlink:href="#m6adf0a6257" x="70.5325" y="169.662014" style="stroke: #000000"/>
      </g>
     </g>
    </g>
    <g id="ytick_25">
     <g id="line2d_31">
      <g>
       <use xlink:href="#m6adf0a6257" x="70.5325" y="162.494705" style="stroke: #000000"/>
      </g>
     </g>
    </g>
    <g id="ytick_26">
     <g id="line2d_32">
      <g>
       <use xlink:href="#m6adf0a6257" x="70.5325" y="155.327396" style="stroke: #000000"/>
      </g>
     </g>
    </g>
    <g id="ytick_27">
     <g id="line2d_33">
      <g>
       <use xlink:href="#m6adf0a6257" x="70.5325" y="148.160087" style="stroke: #000000"/>
      </g>
     </g>
    </g>
    <g id="text_11">
     <!-- $V$ (km/s) -->
     <g transform="translate(15.7575 242.351563) rotate(-90) scale(0.16 -0.16)">
      <defs>
       <path id="DejaVuSans-Oblique-56" d="M 1319 0 
L 500 4666 
L 1119 4666 
L 1797 653 
L 4063 4666 
L 4750 4666 
L 2053 0 
L 1319 0 
z
" transform="scale(0.015625)"/>
       <path id="DejaVuSans-6b" d="M 581 4863 
L 1159 4863 
L 1159 1991 
L 2875 3500 
L 3609 3500 
L 1753 1863 
L 3688 0 
L 2938 0 
L 1159 1709 
L 1159 0 
L 581 0 
L 581 4863 
z
" transform="scale(0.015625)"/>
       <path id="DejaVuSans-6d" d="M 3328 2828 
Q 3544 3216 3844 3400 
Q 4144 3584 4550 3584 
Q 5097 3584 5394 3201 
Q 5691 2819 5691 2113 
L 5691 0 
L 5113 0 
L 5113 2094 
Q 5113 2597 4934 2840 
Q 4756 3084 4391 3084 
Q 3944 3084 3684 2787 
Q 3425 2491 3425 1978 
L 3425 0 
L 2847 0 
L 2847 2094 
Q 2847 2600 2669 2842 
Q 2491 3084 2119 3084 
Q 1678 3084 1418 2786 
Q 1159 2488 1159 1978 
L 1159 0 
L 581 0 
L 581 3500 
L 1159 3500 
L 1159 2956 
Q 1356 3278 1631 3431 
Q 1906 3584 2284 3584 
Q 2666 3584 2933 3390 
Q 3200 3197 3328 2828 
z
" transform="scale(0.015625)"/>
       <path id="DejaVuSans-2f" d="M 1625 4666 
L 2156 4666 
L 531 -594 
L 0 -594 
L 1625 4666 
z
" transform="scale(0.015625)"/>
       <path id="DejaVuSans-73" d="M 2834 3397 
L 2834 2853 
Q 2591 2978 2328 3040 
Q 2066 3103 1784 3103 
Q 1356 3103 1142 2972 
Q 928 2841 928 2578 
Q 928 2378 1081 2264 
Q 1234 2150 1697 2047 
L 1894 2003 
Q 2506 1872 2764 1633 
Q 3022 1394 3022 966 
Q 3022 478 2636 193 
Q 2250 -91 1575 -91 
Q 1294 -91 989 -36 
Q 684 19 347 128 
L 347 722 
Q 666 556 975 473 
Q 1284 391 1588 391 
Q 1994 391 2212 530 
Q 2431 669 2431 922 
Q 2431 1156 2273 1281 
Q 2116 1406 1581 1522 
L 1381 1569 
Q 847 1681 609 1914 
Q 372 2147 372 2553 
Q 372 3047 722 3315 
Q 1072 3584 1716 3584 
Q 2034 3584 2315 3537 
Q 2597 3491 2834 3397 
z
" transform="scale(0.015625)"/>
      </defs>
      <use xlink:href="#DejaVuSans-Oblique-56" transform="translate(0 0.015625)"/>
      <use xlink:href="#DejaVuSans-20" transform="translate(68.408203 0.015625)"/>
      <use xlink:href="#DejaVuSans-28" transform="translate(100.195312 0.015625)"/>
      <use xlink:href="#DejaVuSans-6b" transform="translate(139.208984 0.015625)"/>
      <use xlink:href="#DejaVuSans-6d" transform="translate(197.119141 0.015625)"/>
      <use xlink:href="#DejaVuSans-2f" transform="translate(294.53125 0.015625)"/>
      <use xlink:href="#DejaVuSans-73" transform="translate(328.222656 0.015625)"/>
      <use xlink:href="#DejaVuSans-29" transform="translate(380.322266 0.015625)"/>
     </g>
    </g>
   </g>
   <g id="line2d_34">
    <path d="M 76.624458 217.171555 
L 92.853283 218.127572 
L 109.08099 217.566281 
L 125.309811 217.559022 
L 141.538635 217.648286 
L 157.766342 217.352474 
L 173.995163 217.694218 
L 190.223988 217.893284 
L 206.451694 218.036242 
L 222.680519 217.095195 
L 238.908226 216.776069 
L 255.137054 217.038555 
L 271.365871 216.485602 
L 287.593578 216.922889 
L 303.822407 216.822061 
L 320.051224 217.4881 
L 336.278938 217.406962 
L 352.507759 217.624191 
" clip-path="url(#p7dc2fd3621)" style="fill: none; stroke: #e5ae38; stroke-width: 2; stroke-linecap: square"/>
   </g>
   <g id="patch_5">
    <path d="M 70.5325 271.347017 
L 70.5325 146.15611 
" style="fill: none; stroke: #000000; stroke-linejoin: miter; stroke-linecap: square"/>
   </g>
   <g id="line2d_35">
    <path d="M 76.624458 158.009334 
L 92.853283 156.588685 
L 109.08099 158.995725 
L 125.309811 160.797265 
L 141.538635 161.730321 
L 157.766342 162.27524 
L 173.995163 162.322708 
L 190.223988 162.71495 
L 206.451694 162.081712 
L 222.680519 162.604595 
L 238.908226 163.509499 
L 255.137054 163.67104 
L 271.365871 163.437512 
L 287.593578 164.28203 
L 303.822407 164.084753 
L 320.051224 164.038797 
L 336.278938 164.254843 
L 352.507759 164.050239 
" clip-path="url(#p7dc2fd3621)" style="fill: none; stroke: #6d904f; stroke-width: 2; stroke-linecap: square"/>
   </g>
   <g id="legend_2">
    <g id="text_12">
     <!-- $V_l$ -->
     <g style="fill: #30a2da" transform="translate(367.650223 172.71361) scale(0.16 -0.16)">
      <use xlink:href="#DejaVuSans-Oblique-56" transform="translate(0 0.09375)"/>
      <use xlink:href="#DejaVuSans-Oblique-6c" transform="translate(68.408203 -16.3125) scale(0.7)"/>
     </g>
    </g>
    <g id="text_13">
     <!-- $V_m$ -->
     <g style="fill: #fc4f30" transform="translate(367.650223 196.19861) scale(0.16 -0.16)">
      <use xlink:href="#DejaVuSans-Oblique-56" transform="translate(0 0.09375)"/>
      <use xlink:href="#DejaVuSans-Oblique-6d" transform="translate(68.408203 -16.3125) scale(0.7)"/>
     </g>
    </g>
    <g id="text_14">
     <!-- $V_n$ -->
     <g style="fill: #e5ae38" transform="translate(367.650223 219.68361) scale(0.16 -0.16)">
      <use xlink:href="#DejaVuSans-Oblique-56" transform="translate(0 0.09375)"/>
      <use xlink:href="#DejaVuSans-Oblique-6e" transform="translate(68.408203 -16.3125) scale(0.7)"/>
     </g>
    </g>
    <g id="text_15">
     <!-- $V_{total}$ -->
     <g style="fill: #6d904f" transform="translate(367.650223 243.16861) scale(0.16 -0.16)">
      <use xlink:href="#DejaVuSans-Oblique-56" transform="translate(0 0.09375)"/>
      <use xlink:href="#DejaVuSans-Oblique-74" transform="translate(68.408203 -16.3125) scale(0.7)"/>
      <use xlink:href="#DejaVuSans-Oblique-6f" transform="translate(95.854492 -16.3125) scale(0.7)"/>
      <use xlink:href="#DejaVuSans-Oblique-74" transform="translate(138.681641 -16.3125) scale(0.7)"/>
      <use xlink:href="#DejaVuSans-Oblique-61" transform="translate(166.12793 -16.3125) scale(0.7)"/>
      <use xlink:href="#DejaVuSans-Oblique-6c" transform="translate(209.023438 -16.3125) scale(0.7)"/>
     </g>
    </g>
   </g>
  </g>
  <g id="axes_3">
   <g id="patch_6">
    <path d="M 70.5325 413.903127 
L 362.644617 413.903127 
L 362.644617 288.712219 
L 70.5325 288.712219 
z
" style="fill: #ffffff"/>
   </g>
   <g id="line2d_36">
    <path d="M 78.646667 389.452449 
L 82.703754 398.826224 
L 86.759567 396.205241 
L 90.81665 399.438068 
L 94.87373 399.384334 
L 98.930813 403.470551 
L 102.9879 381.090746 
L 107.044975 368.225737 
L 111.102058 369.290576 
L 115.159153 369.236354 
L 119.219498 365.632803 
L 123.276577 362.02641 
L 127.333652 347.842964 
L 131.390736 343.053525 
L 135.447823 340.923994 
L 139.504898 340.348863 
L 143.561985 342.56436 
L 147.619068 342.883882 
L 151.674881 340.315058 
L 155.731964 339.16516 
L 159.789047 338.52233 
L 163.846134 338.12937 
L 167.903214 337.002835 
L 171.960289 341.158575 
L 176.017376 343.070174 
L 180.074459 338.189427 
L 184.13028 337.684818 
L 188.187363 337.197139 
L 192.244438 333.496826 
L 196.301517 328.992772 
L 200.358608 340.503758 
L 204.415684 338.132812 
L 208.472763 335.841491 
L 212.529846 330.429423 
L 216.590195 322.591141 
L 220.647278 320.957272 
L 224.704365 320.098771 
L 228.761448 316.217538 
L 232.818527 319.56432 
L 236.875603 314.600788 
L 240.932693 317.476976 
L 244.989773 314.911588 
L 249.045593 313.92534 
L 253.10268 309.373708 
L 257.159752 312.011863 
L 261.216831 300.69005 
L 265.273922 306.250641 
L 269.330997 317.618109 
L 273.388077 311.184452 
L 277.44516 312.080043 
L 281.50098 308.969802 
L 285.558064 311.854601 
L 289.615143 304.32217 
L 293.67223 301.512421 
L 297.729305 302.743615 
L 301.786392 300.870528 
L 305.843475 299.680198 
L 309.900558 301.084537 
L 313.956371 302.430039 
L 318.013454 300.478488 
L 322.07053 300.066652 
L 326.127609 300.90651 
L 330.184692 299.144795 
L 334.241779 300.67116 
L 338.298862 305.364763 
L 342.355938 303.052481 
L 346.416294 301.961377 
L 350.473377 302.131667 
" clip-path="url(#p6aeac268ae)" style="fill: none; stroke: #30a2da; stroke-width: 2; stroke-linecap: square"/>
   </g>
   <g id="line2d_37">
    <path d="M 78.646667 378.584906 
L 82.703754 380.039464 
L 86.759567 381.493566 
L 90.81665 382.948124 
L 94.87373 382.095773 
L 98.930813 378.918039 
L 102.9879 375.740305 
L 107.044975 372.562578 
L 111.102058 369.446434 
L 115.159153 366.392331 
L 119.219498 363.335776 
L 123.276577 360.281677 
L 127.333652 357.72208 
L 131.390736 355.659271 
L 135.447823 353.596457 
L 139.504898 351.533649 
L 143.561985 350.140376 
L 147.619068 349.420074 
L 151.674881 348.699997 
L 155.731964 347.979694 
L 159.789047 347.355576 
L 163.846134 346.828196 
L 167.903214 346.300815 
L 171.960289 345.773436 
L 176.017376 344.857582 
L 180.074459 343.550825 
L 184.13028 342.244477 
L 188.187363 340.937721 
L 192.244438 340.639338 
L 196.301517 341.357404 
L 200.358608 342.075468 
L 204.415684 342.793532 
L 208.472763 341.965729 
L 212.529846 339.580627 
L 216.590195 337.193602 
L 220.647278 334.808497 
L 224.704365 333.049226 
L 228.761448 331.918694 
L 232.818527 330.788161 
L 236.875603 329.657631 
L 240.932693 328.43535 
L 244.989773 327.120954 
L 249.045593 325.80697 
L 253.10268 324.492575 
L 257.159752 324.314158 
L 261.216831 325.278277 
L 265.273922 326.242397 
L 269.330997 327.206516 
L 273.388077 326.869975 
L 277.44516 325.22463 
L 281.50098 323.579795 
L 285.558064 321.934449 
L 289.615143 321.099257 
L 293.67223 321.079815 
L 297.729305 321.060373 
L 301.786392 321.04093 
L 305.843475 320.814375 
L 309.900558 320.379174 
L 313.956371 319.944108 
L 318.013454 319.508907 
L 322.07053 319.117292 
L 326.127609 318.76966 
L 330.184692 318.422027 
L 334.241779 318.074395 
L 338.298862 318.245308 
L 342.355938 318.93919 
L 346.416294 319.633632 
L 350.473377 320.327514 
" clip-path="url(#p6aeac268ae)" style="fill: none; stroke: #fc4f30; stroke-width: 2; stroke-linecap: square"/>
   </g>
   <g id="matplotlib.axis_3">
    <g id="ytick_28">
     <g id="line2d_38">
      <g>
       <use xlink:href="#macf5d4d431" x="70.5325" y="402.609127" style="stroke: #000000"/>
      </g>
     </g>
     <g id="text_16">
      <!-- −50 -->
      <g transform="translate(33.265 408.687877) scale(0.16 -0.16)">
       <use xlink:href="#DejaVuSans-2212"/>
       <use xlink:href="#DejaVuSans-35" x="83.789062"/>
       <use xlink:href="#DejaVuSans-30" x="147.412109"/>
      </g>
     </g>
    </g>
    <g id="ytick_29">
     <g id="line2d_39">
      <g>
       <use xlink:href="#macf5d4d431" x="70.5325" y="344.857582" style="stroke: #000000"/>
      </g>
     </g>
     <g id="text_17">
      <!-- 0 -->
      <g transform="translate(56.8525 350.936332) scale(0.16 -0.16)">
       <use xlink:href="#DejaVuSans-30"/>
      </g>
     </g>
    </g>
    <g id="ytick_30">
     <g id="line2d_40">
      <g>
       <use xlink:href="#m6adf0a6257" x="70.5325" y="391.058818" style="stroke: #000000"/>
      </g>
     </g>
    </g>
    <g id="ytick_31">
     <g id="line2d_41">
      <g>
       <use xlink:href="#m6adf0a6257" x="70.5325" y="379.508509" style="stroke: #000000"/>
      </g>
     </g>
    </g>
    <g id="ytick_32">
     <g id="line2d_42">
      <g>
       <use xlink:href="#m6adf0a6257" x="70.5325" y="367.9582" style="stroke: #000000"/>
      </g>
     </g>
    </g>
    <g id="ytick_33">
     <g id="line2d_43">
      <g>
       <use xlink:href="#m6adf0a6257" x="70.5325" y="356.407891" style="stroke: #000000"/>
      </g>
     </g>
    </g>
    <g id="ytick_34">
     <g id="line2d_44">
      <g>
       <use xlink:href="#m6adf0a6257" x="70.5325" y="333.307274" style="stroke: #000000"/>
      </g>
     </g>
    </g>
    <g id="ytick_35">
     <g id="line2d_45">
      <g>
       <use xlink:href="#m6adf0a6257" x="70.5325" y="321.756965" style="stroke: #000000"/>
      </g>
     </g>
    </g>
    <g id="ytick_36">
     <g id="line2d_46">
      <g>
       <use xlink:href="#m6adf0a6257" x="70.5325" y="310.206656" style="stroke: #000000"/>
      </g>
     </g>
    </g>
    <g id="ytick_37">
     <g id="line2d_47">
      <g>
       <use xlink:href="#m6adf0a6257" x="70.5325" y="298.656347" style="stroke: #000000"/>
      </g>
     </g>
    </g>
    <g id="text_18">
     <!-- $V_l$ (km/s) -->
     <g transform="translate(25.9375 386.667673) rotate(-90) scale(0.16 -0.16)">
      <use xlink:href="#DejaVuSans-Oblique-56" transform="translate(0 0.015625)"/>
      <use xlink:href="#DejaVuSans-Oblique-6c" transform="translate(68.408203 -16.390625) scale(0.7)"/>
      <use xlink:href="#DejaVuSans-20" transform="translate(90.59082 0.015625)"/>
      <use xlink:href="#DejaVuSans-28" transform="translate(122.37793 0.015625)"/>
      <use xlink:href="#DejaVuSans-6b" transform="translate(161.391602 0.015625)"/>
      <use xlink:href="#DejaVuSans-6d" transform="translate(219.301758 0.015625)"/>
      <use xlink:href="#DejaVuSans-2f" transform="translate(316.713867 0.015625)"/>
      <use xlink:href="#DejaVuSans-73" transform="translate(350.405273 0.015625)"/>
      <use xlink:href="#DejaVuSans-29" transform="translate(402.504883 0.015625)"/>
     </g>
    </g>
   </g>
   <g id="patch_7">
    <path d="M 70.5325 413.903127 
L 70.5325 288.712219 
" style="fill: none; stroke: #000000; stroke-linejoin: miter; stroke-linecap: square"/>
   </g>
   <g id="legend_3">
    <g id="text_19">
     <!-- $V_{A,l}$ -->
     <g style="fill: #30a2da" transform="translate(367.650223 315.269719) scale(0.16 -0.16)">
      <defs>
       <path id="DejaVuSans-Oblique-41" d="M 2356 4666 
L 3072 4666 
L 3938 0 
L 3278 0 
L 3084 1197 
L 984 1197 
L 325 0 
L -341 0 
L 2356 4666 
z
M 2584 4044 
L 1275 1722 
L 2988 1722 
L 2584 4044 
z
" transform="scale(0.015625)"/>
       <path id="DejaVuSans-2c" d="M 750 794 
L 1409 794 
L 1409 256 
L 897 -744 
L 494 -744 
L 750 256 
L 750 794 
z
" transform="scale(0.015625)"/>
      </defs>
      <use xlink:href="#DejaVuSans-Oblique-56" transform="translate(0 0.09375)"/>
      <use xlink:href="#DejaVuSans-Oblique-41" transform="translate(68.408203 -16.3125) scale(0.7)"/>
      <use xlink:href="#DejaVuSans-2c" transform="translate(116.293945 -16.3125) scale(0.7)"/>
      <use xlink:href="#DejaVuSans-Oblique-6c" transform="translate(152.182617 -16.3125) scale(0.7)"/>
     </g>
    </g>
    <g id="text_20">
     <!-- $dV_{i,l}$ -->
     <g style="fill: #fc4f30" transform="translate(367.650223 339.429719) scale(0.16 -0.16)">
      <defs>
       <path id="DejaVuSans-Oblique-64" d="M 2675 525 
Q 2444 222 2128 65 
Q 1813 -91 1428 -91 
Q 903 -91 598 267 
Q 294 625 294 1247 
Q 294 1766 478 2236 
Q 663 2706 1013 3078 
Q 1244 3325 1534 3454 
Q 1825 3584 2144 3584 
Q 2481 3584 2739 3421 
Q 2997 3259 3138 2956 
L 3513 4863 
L 4091 4863 
L 3144 0 
L 2566 0 
L 2675 525 
z
M 891 1350 
Q 891 897 1095 644 
Q 1300 391 1663 391 
Q 1931 391 2161 520 
Q 2391 650 2566 903 
Q 2750 1166 2856 1509 
Q 2963 1853 2963 2188 
Q 2963 2622 2758 2865 
Q 2553 3109 2194 3109 
Q 1922 3109 1687 2981 
Q 1453 2853 1288 2613 
Q 1106 2353 998 2009 
Q 891 1666 891 1350 
z
" transform="scale(0.015625)"/>
       <path id="DejaVuSans-Oblique-69" d="M 1172 4863 
L 1747 4863 
L 1606 4134 
L 1031 4134 
L 1172 4863 
z
M 909 3500 
L 1484 3500 
L 800 0 
L 225 0 
L 909 3500 
z
" transform="scale(0.015625)"/>
      </defs>
      <use xlink:href="#DejaVuSans-Oblique-64" transform="translate(0 0.015625)"/>
      <use xlink:href="#DejaVuSans-Oblique-56" transform="translate(63.476562 0.015625)"/>
      <use xlink:href="#DejaVuSans-Oblique-69" transform="translate(131.884766 -16.390625) scale(0.7)"/>
      <use xlink:href="#DejaVuSans-2c" transform="translate(151.333008 -16.390625) scale(0.7)"/>
      <use xlink:href="#DejaVuSans-Oblique-6c" transform="translate(187.22168 -16.390625) scale(0.7)"/>
     </g>
    </g>
   </g>
  </g>
  <g id="axes_4">
   <g id="patch_8">
    <path d="M 70.5325 556.459236 
L 362.644617 556.459236 
L 362.644617 431.268329 
L 70.5325 431.268329 
z
" style="fill: #ffffff"/>
   </g>
   <g id="line2d_48">
    <path d="M 76.624458 511.823839 
L 92.853283 516.149571 
L 109.08099 508.099773 
L 125.309811 527.22657 
L 141.538635 543.696897 
L 157.766342 523.67329 
L 173.995163 542.198248 
L 190.223988 509.838506 
L 206.451694 512.457124 
L 222.680519 546.026661 
L 238.908226 537.468394 
L 255.137054 499.252823 
L 271.365871 490.319537 
L 287.593578 460.268917 
L 303.822407 480.295669 
L 320.051224 485.703749 
L 336.278938 441.700905 
L 352.507759 453.081052 
" clip-path="url(#pedbbb1de61)" style="fill: none; stroke: #30a2da; stroke-width: 2; stroke-linecap: square"/>
   </g>
   <g id="matplotlib.axis_4">
    <g id="xtick_1">
     <g id="line2d_49">
      <defs>
       <path id="m4e38047e62" d="M 0 0 
L 0 -6 
" style="stroke: #000000"/>
      </defs>
      <g>
       <use xlink:href="#m4e38047e62" x="125.4828" y="556.459236" style="stroke: #000000"/>
      </g>
     </g>
     <g id="text_21">
      <!-- 20 -->
      <g transform="translate(115.3028 572.116736) scale(0.16 -0.16)">
       <use xlink:href="#DejaVuSans-32"/>
       <use xlink:href="#DejaVuSans-30" x="63.623047"/>
      </g>
     </g>
    </g>
    <g id="xtick_2">
     <g id="line2d_50">
      <g>
       <use xlink:href="#m4e38047e62" x="218.342022" y="556.459236" style="stroke: #000000"/>
      </g>
     </g>
     <g id="text_22">
      <!-- 25 -->
      <g transform="translate(208.162022 572.116736) scale(0.16 -0.16)">
       <use xlink:href="#DejaVuSans-32"/>
       <use xlink:href="#DejaVuSans-35" x="63.623047"/>
      </g>
     </g>
    </g>
    <g id="xtick_3">
     <g id="line2d_51">
      <g>
       <use xlink:href="#m4e38047e62" x="311.201244" y="556.459236" style="stroke: #000000"/>
      </g>
     </g>
     <g id="text_23">
      <!-- 30 -->
      <g transform="translate(301.021244 572.116736) scale(0.16 -0.16)">
       <defs>
        <path id="DejaVuSans-33" d="M 2597 2516 
Q 3050 2419 3304 2112 
Q 3559 1806 3559 1356 
Q 3559 666 3084 287 
Q 2609 -91 1734 -91 
Q 1441 -91 1130 -33 
Q 819 25 488 141 
L 488 750 
Q 750 597 1062 519 
Q 1375 441 1716 441 
Q 2309 441 2620 675 
Q 2931 909 2931 1356 
Q 2931 1769 2642 2001 
Q 2353 2234 1838 2234 
L 1294 2234 
L 1294 2753 
L 1863 2753 
Q 2328 2753 2575 2939 
Q 2822 3125 2822 3475 
Q 2822 3834 2567 4026 
Q 2313 4219 1838 4219 
Q 1578 4219 1281 4162 
Q 984 4106 628 3988 
L 628 4550 
Q 988 4650 1302 4700 
Q 1616 4750 1894 4750 
Q 2613 4750 3031 4423 
Q 3450 4097 3450 3541 
Q 3450 3153 3228 2886 
Q 3006 2619 2597 2516 
z
" transform="scale(0.015625)"/>
       </defs>
       <use xlink:href="#DejaVuSans-33"/>
       <use xlink:href="#DejaVuSans-30" x="63.623047"/>
      </g>
     </g>
    </g>
    <g id="xtick_4">
     <g id="line2d_52">
      <defs>
       <path id="m7976aa7be0" d="M 0 0 
L 0 -3 
" style="stroke: #000000"/>
      </defs>
      <g>
       <use xlink:href="#m7976aa7be0" x="79.053192" y="556.459236" style="stroke: #000000"/>
      </g>
     </g>
    </g>
    <g id="xtick_5">
     <g id="line2d_53">
      <g>
       <use xlink:href="#m7976aa7be0" x="102.267994" y="556.459236" style="stroke: #000000"/>
      </g>
     </g>
    </g>
    <g id="xtick_6">
     <g id="line2d_54">
      <g>
       <use xlink:href="#m7976aa7be0" x="148.697609" y="556.459236" style="stroke: #000000"/>
      </g>
     </g>
    </g>
    <g id="xtick_7">
     <g id="line2d_55">
      <g>
       <use xlink:href="#m7976aa7be0" x="171.912411" y="556.459236" style="stroke: #000000"/>
      </g>
     </g>
    </g>
    <g id="xtick_8">
     <g id="line2d_56">
      <g>
       <use xlink:href="#m7976aa7be0" x="195.127213" y="556.459236" style="stroke: #000000"/>
      </g>
     </g>
    </g>
    <g id="xtick_9">
     <g id="line2d_57">
      <g>
       <use xlink:href="#m7976aa7be0" x="241.556828" y="556.459236" style="stroke: #000000"/>
      </g>
     </g>
    </g>
    <g id="xtick_10">
     <g id="line2d_58">
      <g>
       <use xlink:href="#m7976aa7be0" x="264.771629" y="556.459236" style="stroke: #000000"/>
      </g>
     </g>
    </g>
    <g id="xtick_11">
     <g id="line2d_59">
      <g>
       <use xlink:href="#m7976aa7be0" x="287.986431" y="556.459236" style="stroke: #000000"/>
      </g>
     </g>
    </g>
    <g id="xtick_12">
     <g id="line2d_60">
      <g>
       <use xlink:href="#m7976aa7be0" x="334.416046" y="556.459236" style="stroke: #000000"/>
      </g>
     </g>
    </g>
    <g id="xtick_13">
     <g id="line2d_61">
      <g>
       <use xlink:href="#m7976aa7be0" x="357.630848" y="556.459236" style="stroke: #000000"/>
      </g>
     </g>
    </g>
    <g id="text_24">
     <!-- time -->
     <g transform="translate(198.514809 591.601736) scale(0.16 -0.16)">
      <defs>
       <path id="DejaVuSans-74" d="M 1172 4494 
L 1172 3500 
L 2356 3500 
L 2356 3053 
L 1172 3053 
L 1172 1153 
Q 1172 725 1289 603 
Q 1406 481 1766 481 
L 2356 481 
L 2356 0 
L 1766 0 
Q 1100 0 847 248 
Q 594 497 594 1153 
L 594 3053 
L 172 3053 
L 172 3500 
L 594 3500 
L 594 4494 
L 1172 4494 
z
" transform="scale(0.015625)"/>
       <path id="DejaVuSans-69" d="M 603 3500 
L 1178 3500 
L 1178 0 
L 603 0 
L 603 3500 
z
M 603 4863 
L 1178 4863 
L 1178 4134 
L 603 4134 
L 603 4863 
z
" transform="scale(0.015625)"/>
       <path id="DejaVuSans-65" d="M 3597 1894 
L 3597 1613 
L 953 1613 
Q 991 1019 1311 708 
Q 1631 397 2203 397 
Q 2534 397 2845 478 
Q 3156 559 3463 722 
L 3463 178 
Q 3153 47 2828 -22 
Q 2503 -91 2169 -91 
Q 1331 -91 842 396 
Q 353 884 353 1716 
Q 353 2575 817 3079 
Q 1281 3584 2069 3584 
Q 2775 3584 3186 3129 
Q 3597 2675 3597 1894 
z
M 3022 2063 
Q 3016 2534 2758 2815 
Q 2500 3097 2075 3097 
Q 1594 3097 1305 2825 
Q 1016 2553 972 2059 
L 3022 2063 
z
" transform="scale(0.015625)"/>
      </defs>
      <use xlink:href="#DejaVuSans-74"/>
      <use xlink:href="#DejaVuSans-69" x="39.208984"/>
      <use xlink:href="#DejaVuSans-6d" x="66.992188"/>
      <use xlink:href="#DejaVuSans-65" x="164.404297"/>
     </g>
    </g>
    <g id="text_25">
     <!-- 2021-Jan-17 13:54 -->
     <g transform="translate(213.259617 590.601736) scale(0.16 -0.16)">
      <defs>
       <path id="DejaVuSans-31" d="M 794 531 
L 1825 531 
L 1825 4091 
L 703 3866 
L 703 4441 
L 1819 4666 
L 2450 4666 
L 2450 531 
L 3481 531 
L 3481 0 
L 794 0 
L 794 531 
z
" transform="scale(0.015625)"/>
       <path id="DejaVuSans-2d" d="M 313 2009 
L 1997 2009 
L 1997 1497 
L 313 1497 
L 313 2009 
z
" transform="scale(0.015625)"/>
       <path id="DejaVuSans-4a" d="M 628 4666 
L 1259 4666 
L 1259 325 
Q 1259 -519 939 -900 
Q 619 -1281 -91 -1281 
L -331 -1281 
L -331 -750 
L -134 -750 
Q 284 -750 456 -515 
Q 628 -281 628 325 
L 628 4666 
z
" transform="scale(0.015625)"/>
       <path id="DejaVuSans-61" d="M 2194 1759 
Q 1497 1759 1228 1600 
Q 959 1441 959 1056 
Q 959 750 1161 570 
Q 1363 391 1709 391 
Q 2188 391 2477 730 
Q 2766 1069 2766 1631 
L 2766 1759 
L 2194 1759 
z
M 3341 1997 
L 3341 0 
L 2766 0 
L 2766 531 
Q 2569 213 2275 61 
Q 1981 -91 1556 -91 
Q 1019 -91 701 211 
Q 384 513 384 1019 
Q 384 1609 779 1909 
Q 1175 2209 1959 2209 
L 2766 2209 
L 2766 2266 
Q 2766 2663 2505 2880 
Q 2244 3097 1772 3097 
Q 1472 3097 1187 3025 
Q 903 2953 641 2809 
L 641 3341 
Q 956 3463 1253 3523 
Q 1550 3584 1831 3584 
Q 2591 3584 2966 3190 
Q 3341 2797 3341 1997 
z
" transform="scale(0.015625)"/>
       <path id="DejaVuSans-37" d="M 525 4666 
L 3525 4666 
L 3525 4397 
L 1831 0 
L 1172 0 
L 2766 4134 
L 525 4134 
L 525 4666 
z
" transform="scale(0.015625)"/>
       <path id="DejaVuSans-3a" d="M 750 794 
L 1409 794 
L 1409 0 
L 750 0 
L 750 794 
z
M 750 3309 
L 1409 3309 
L 1409 2516 
L 750 2516 
L 750 3309 
z
" transform="scale(0.015625)"/>
       <path id="DejaVuSans-34" d="M 2419 4116 
L 825 1625 
L 2419 1625 
L 2419 4116 
z
M 2253 4666 
L 3047 4666 
L 3047 1625 
L 3713 1625 
L 3713 1100 
L 3047 1100 
L 3047 0 
L 2419 0 
L 2419 1100 
L 313 1100 
L 313 1709 
L 2253 4666 
z
" transform="scale(0.015625)"/>
      </defs>
      <use xlink:href="#DejaVuSans-32"/>
      <use xlink:href="#DejaVuSans-30" x="63.623047"/>
      <use xlink:href="#DejaVuSans-32" x="127.246094"/>
      <use xlink:href="#DejaVuSans-31" x="190.869141"/>
      <use xlink:href="#DejaVuSans-2d" x="254.492188"/>
      <use xlink:href="#DejaVuSans-4a" x="296.201172"/>
      <use xlink:href="#DejaVuSans-61" x="325.693359"/>
      <use xlink:href="#DejaVuSans-6e" x="386.972656"/>
      <use xlink:href="#DejaVuSans-2d" x="450.351562"/>
      <use xlink:href="#DejaVuSans-31" x="486.435547"/>
      <use xlink:href="#DejaVuSans-37" x="550.058594"/>
      <use xlink:href="#DejaVuSans-20" x="613.681641"/>
      <use xlink:href="#DejaVuSans-31" x="645.46875"/>
      <use xlink:href="#DejaVuSans-33" x="709.091797"/>
      <use xlink:href="#DejaVuSans-3a" x="772.714844"/>
      <use xlink:href="#DejaVuSans-35" x="806.40625"/>
      <use xlink:href="#DejaVuSans-34" x="870.029297"/>
     </g>
    </g>
   </g>
   <g id="matplotlib.axis_5">
    <g id="ytick_38">
     <g id="line2d_62">
      <g>
       <use xlink:href="#macf5d4d431" x="70.5325" y="518.336394" style="stroke: #000000"/>
      </g>
     </g>
     <g id="text_26">
      <!-- 3200 -->
      <g transform="translate(26.3125 524.415144) scale(0.16 -0.16)">
       <use xlink:href="#DejaVuSans-33"/>
       <use xlink:href="#DejaVuSans-32" x="63.623047"/>
       <use xlink:href="#DejaVuSans-30" x="127.246094"/>
       <use xlink:href="#DejaVuSans-30" x="190.869141"/>
      </g>
     </g>
    </g>
    <g id="ytick_39">
     <g id="line2d_63">
      <g>
       <use xlink:href="#macf5d4d431" x="70.5325" y="471.497547" style="stroke: #000000"/>
      </g>
     </g>
     <g id="text_27">
      <!-- 3400 -->
      <g transform="translate(26.3125 477.576297) scale(0.16 -0.16)">
       <use xlink:href="#DejaVuSans-33"/>
       <use xlink:href="#DejaVuSans-34" x="63.623047"/>
       <use xlink:href="#DejaVuSans-30" x="127.246094"/>
       <use xlink:href="#DejaVuSans-30" x="190.869141"/>
      </g>
     </g>
    </g>
    <g id="ytick_40">
     <g id="line2d_64">
      <g>
       <use xlink:href="#m6adf0a6257" x="70.5325" y="553.46553" style="stroke: #000000"/>
      </g>
     </g>
    </g>
    <g id="ytick_41">
     <g id="line2d_65">
      <g>
       <use xlink:href="#m6adf0a6257" x="70.5325" y="541.755818" style="stroke: #000000"/>
      </g>
     </g>
    </g>
    <g id="ytick_42">
     <g id="line2d_66">
      <g>
       <use xlink:href="#m6adf0a6257" x="70.5325" y="530.046106" style="stroke: #000000"/>
      </g>
     </g>
    </g>
    <g id="ytick_43">
     <g id="line2d_67">
      <g>
       <use xlink:href="#m6adf0a6257" x="70.5325" y="506.626683" style="stroke: #000000"/>
      </g>
     </g>
    </g>
    <g id="ytick_44">
     <g id="line2d_68">
      <g>
       <use xlink:href="#m6adf0a6257" x="70.5325" y="494.916971" style="stroke: #000000"/>
      </g>
     </g>
    </g>
    <g id="ytick_45">
     <g id="line2d_69">
      <g>
       <use xlink:href="#m6adf0a6257" x="70.5325" y="483.207259" style="stroke: #000000"/>
      </g>
     </g>
    </g>
    <g id="ytick_46">
     <g id="line2d_70">
      <g>
       <use xlink:href="#m6adf0a6257" x="70.5325" y="459.787835" style="stroke: #000000"/>
      </g>
     </g>
    </g>
    <g id="ytick_47">
     <g id="line2d_71">
      <g>
       <use xlink:href="#m6adf0a6257" x="70.5325" y="448.078123" style="stroke: #000000"/>
      </g>
     </g>
    </g>
    <g id="ytick_48">
     <g id="line2d_72">
      <g>
       <use xlink:href="#m6adf0a6257" x="70.5325" y="436.368412" style="stroke: #000000"/>
      </g>
     </g>
    </g>
    <g id="text_28">
     <!-- $n_i$ (cm$^{-3}$) -->
     <g transform="translate(18.985 530.263783) rotate(-90) scale(0.16 -0.16)">
      <defs>
       <path id="DejaVuSans-63" d="M 3122 3366 
L 3122 2828 
Q 2878 2963 2633 3030 
Q 2388 3097 2138 3097 
Q 1578 3097 1268 2742 
Q 959 2388 959 1747 
Q 959 1106 1268 751 
Q 1578 397 2138 397 
Q 2388 397 2633 464 
Q 2878 531 3122 666 
L 3122 134 
Q 2881 22 2623 -34 
Q 2366 -91 2075 -91 
Q 1284 -91 818 406 
Q 353 903 353 1747 
Q 353 2603 823 3093 
Q 1294 3584 2113 3584 
Q 2378 3584 2631 3529 
Q 2884 3475 3122 3366 
z
" transform="scale(0.015625)"/>
      </defs>
      <use xlink:href="#DejaVuSans-Oblique-6e" transform="translate(0 0.765625)"/>
      <use xlink:href="#DejaVuSans-Oblique-69" transform="translate(63.378906 -15.640625) scale(0.7)"/>
      <use xlink:href="#DejaVuSans-20" transform="translate(85.561523 0.765625)"/>
      <use xlink:href="#DejaVuSans-28" transform="translate(117.348633 0.765625)"/>
      <use xlink:href="#DejaVuSans-63" transform="translate(156.362305 0.765625)"/>
      <use xlink:href="#DejaVuSans-6d" transform="translate(211.342773 0.765625)"/>
      <use xlink:href="#DejaVuSans-2212" transform="translate(309.711914 39.046875) scale(0.7)"/>
      <use xlink:href="#DejaVuSans-33" transform="translate(368.364258 39.046875) scale(0.7)"/>
      <use xlink:href="#DejaVuSans-29" transform="translate(415.634766 0.765625)"/>
     </g>
    </g>
   </g>
   <g id="patch_9">
    <path d="M 70.5325 556.459236 
L 70.5325 431.268329 
" style="fill: none; stroke: #000000; stroke-linejoin: miter; stroke-linecap: square"/>
   </g>
   <g id="patch_10">
    <path d="M 70.532501 556.459236 
L 362.644619 556.459236 
" style="fill: none; stroke: #000000; stroke-linejoin: miter; stroke-linecap: square"/>
   </g>
  </g>
 </g>
 <defs>
  <clipPath id="pecb9796ccc">
   <rect x="70.5325" y="3.6" width="292.112117" height="125.190907"/>
  </clipPath>
  <clipPath id="p7dc2fd3621">
   <rect x="70.5325" y="146.15611" width="292.112117" height="125.190907"/>
  </clipPath>
  <clipPath id="p6aeac268ae">
   <rect x="70.5325" y="288.712219" width="292.112117" height="125.190907"/>
  </clipPath>
  <clipPath id="pedbbb1de61">
   <rect x="70.5325" y="431.268329" width="292.112117" height="125.190907"/>
  </clipPath>
 </defs>
</svg>
