<?xml version="1.0" encoding="utf-8" standalone="no"?>
<!DOCTYPE svg PUBLIC "-//W3C//DTD SVG 1.1//EN"
  "http://www.w3.org/Graphics/SVG/1.1/DTD/svg11.dtd">
<svg xmlns:xlink="http://www.w3.org/1999/xlink" width="413.777018pt" height="608.504812pt" viewBox="0 0 413.777018 608.504812" xmlns="http://www.w3.org/2000/svg" version="1.1">
 <metadata>
  <rdf:RDF xmlns:dc="http://purl.org/dc/elements/1.1/" xmlns:cc="http://creativecommons.org/ns#" xmlns:rdf="http://www.w3.org/1999/02/22-rdf-syntax-ns#">
   <cc:Work>
    <dc:type rdf:resource="http://purl.org/dc/dcmitype/StillImage"/>
    <dc:date>2024-08-20T10:34:13.955001</dc:date>
    <dc:format>image/svg+xml</dc:format>
    <dc:creator>
     <cc:Agent>
      <dc:title>Matplotlib v3.9.2, https://matplotlib.org/</dc:title>
     </cc:Agent>
    </dc:creator>
   </cc:Work>
  </rdf:RDF>
 </metadata>
 <defs>
  <style type="text/css">*{stroke-linejoin: round; stroke-linecap: butt}</style>
 </defs>
 <g id="figure_1">
  <g id="patch_1">
   <path d="M 0 608.504812 
L 413.777018 608.504812 
L 413.777018 0 
L 0 0 
z
" style="fill: #ffffff"/>
  </g>
  <g id="axes_1">
   <g id="patch_2">
    <path d="M 64.005 131.049803 
L 361.387874 131.049803 
L 361.387874 3.6 
L 64.005 3.6 
z
" style="fill: #ffffff"/>
   </g>
   <g id="line2d_1">
    <path d="M 64.005 16.999806 
L 67.251447 15.955623 
L 70.497871 15.839096 
L 73.744317 15.413591 
L 76.990764 16.02993 
L 80.237188 18.52506 
L 83.483634 17.632833 
L 86.730081 17.017702 
L 89.976505 15.346641 
L 93.222952 15.346089 
L 96.469398 15.301626 
L 99.715822 14.448252 
L 102.962269 14.541634 
L 106.208716 16.96413 
L 109.455139 18.668782 
L 112.701586 20.460866 
L 115.948033 21.142125 
L 119.194479 23.135042 
L 122.440903 23.684697 
L 125.68735 24.890817 
L 128.933797 24.893181 
L 132.18022 27.565952 
L 135.426667 29.052403 
L 138.673114 29.664119 
L 141.919561 31.111901 
L 145.165984 31.737352 
L 148.412431 30.92164 
L 151.658855 30.943207 
L 154.905302 31.286822 
L 158.151748 31.9053 
L 161.398172 33.192008 
L 164.644619 33.790989 
L 167.891065 32.486162 
L 171.137512 34.188953 
L 174.383936 33.570489 
L 177.630382 32.835308 
L 180.876829 30.25484 
L 184.123253 31.130579 
L 187.369699 31.529836 
L 190.616147 37.987214 
L 193.86257 42.276559 
L 197.109017 45.679728 
L 200.355464 46.317404 
L 203.60191 47.592725 
L 206.848334 50.387947 
L 210.094781 54.044841 
L 213.341204 55.303794 
L 216.587651 56.967495 
L 219.834098 60.061088 
L 223.080522 63.164539 
L 226.326968 68.369382 
L 229.573415 72.271352 
L 232.819862 77.584748 
L 236.066285 80.825564 
L 239.312732 83.847108 
L 242.559179 86.789022 
L 245.805603 90.117271 
L 249.052049 91.152738 
L 252.298496 91.193293 
L 255.54492 95.540562 
L 258.791367 96.162667 
L 262.037813 96.527376 
L 265.28426 97.636534 
L 268.530684 99.434799 
L 271.77713 99.86999 
L 275.023577 99.649998 
L 278.270001 100.232582 
L 281.516448 100.938848 
L 284.762872 100.684046 
L 288.009318 102.224858 
L 291.255765 103.834958 
L 294.502212 105.116063 
L 297.748635 107.301367 
L 300.995082 108.853411 
L 304.241529 112.772822 
L 307.487952 114.23892 
L 310.734399 113.000237 
L 313.980846 112.430139 
L 317.227293 112.756035 
L 320.473716 111.825105 
L 323.720163 111.854472 
L 326.96661 112.579908 
L 330.213033 112.092646 
L 333.45948 111.321339 
L 336.705927 110.143944 
L 339.952351 111.159995 
L 343.198797 110.506335 
L 346.445244 111.660132 
L 349.691668 111.631984 
L 352.938115 112.323958 
L 356.184561 112.896861 
L 359.430985 112.197858 
" clip-path="url(#pf52edaeaa5)" style="fill: none; stroke: #30a2da; stroke-width: 2; stroke-linecap: square"/>
   </g>
   <g id="line2d_2">
    <path d="M 64.005 84.809149 
L 67.251447 84.652403 
L 70.497871 83.211559 
L 73.744317 80.590134 
L 76.990764 81.768336 
L 80.237188 82.726926 
L 83.483634 84.150223 
L 86.730081 86.438312 
L 89.976505 84.775359 
L 93.222952 85.566666 
L 96.469398 86.283043 
L 99.715822 81.126646 
L 102.962269 78.221088 
L 106.208716 77.71937 
L 109.455139 77.037332 
L 112.701586 75.20575 
L 115.948033 78.513323 
L 119.194479 77.946637 
L 122.440903 77.78239 
L 125.68735 77.366297 
L 128.933797 77.375462 
L 132.18022 80.709927 
L 135.426667 84.731946 
L 138.673114 89.161672 
L 141.919561 89.375737 
L 145.165984 89.601848 
L 148.412431 88.74902 
L 151.658855 87.051387 
L 154.905302 87.576413 
L 158.151748 87.177505 
L 161.398172 88.85288 
L 164.644619 89.17139 
L 167.891065 89.803761 
L 171.137512 90.004724 
L 174.383936 90.402928 
L 177.630382 94.41183 
L 180.876829 94.899181 
L 184.123253 95.093523 
L 187.369699 98.061718 
L 190.616147 103.549036 
L 193.86257 103.732055 
L 197.109017 103.58184 
L 200.355464 103.729003 
L 203.60191 102.858378 
L 206.848334 105.634078 
L 210.094781 110.243388 
L 213.341204 113.064328 
L 216.587651 115.839667 
L 219.834098 114.921297 
L 223.080522 120.428986 
L 226.326968 117.344683 
L 229.573415 115.148677 
L 232.819862 117.730477 
L 236.066285 116.906514 
L 239.312732 116.627807 
L 242.559179 117.329381 
L 245.805603 117.038885 
L 249.052049 114.479673 
L 252.298496 109.979235 
L 255.54492 105.382137 
L 258.791367 100.491382 
L 262.037813 99.96082 
L 265.28426 95.032548 
L 268.530684 92.513348 
L 271.77713 88.680301 
L 275.023577 87.513689 
L 278.270001 86.064492 
L 281.516448 84.418876 
L 284.762872 83.291007 
L 288.009318 81.880417 
L 291.255765 81.629587 
L 294.502212 81.055666 
L 297.748635 78.358712 
L 300.995082 72.237664 
L 304.241529 74.022474 
L 307.487952 78.168287 
L 310.734399 79.846191 
L 313.980846 80.232472 
L 317.227293 78.910835 
L 320.473716 78.305162 
L 323.720163 79.806717 
L 326.96661 79.522329 
L 330.213033 79.430954 
L 333.45948 79.044744 
L 336.705927 79.473186 
L 339.952351 78.920624 
L 343.198797 79.680658 
L 346.445244 79.45702 
L 349.691668 79.248788 
L 352.938115 81.415752 
L 356.184561 82.826863 
L 359.430985 85.394019 
" clip-path="url(#pf52edaeaa5)" style="fill: none; stroke: #fc4f30; stroke-width: 2; stroke-linecap: square"/>
   </g>
   <g id="matplotlib.axis_1">
    <g id="ytick_1">
     <g id="line2d_3">
      <defs>
       <path id="m6fb76ad5cf" d="M 0 0 
L 6 0 
" style="stroke: #000000"/>
      </defs>
      <g>
       <use xlink:href="#m6fb76ad5cf" x="64.005" y="117.329626" style="stroke: #000000"/>
      </g>
     </g>
     <g id="text_1">
      <!-- −5 -->
      <g transform="translate(36.9175 123.408376) scale(0.16 -0.16)">
       <defs>
        <path id="DejaVuSans-2212" d="M 678 2272 
L 4684 2272 
L 4684 1741 
L 678 1741 
L 678 2272 
z
" transform="scale(0.015625)"/>
        <path id="DejaVuSans-35" d="M 691 4666 
L 3169 4666 
L 3169 4134 
L 1269 4134 
L 1269 2991 
Q 1406 3038 1543 3061 
Q 1681 3084 1819 3084 
Q 2600 3084 3056 2656 
Q 3513 2228 3513 1497 
Q 3513 744 3044 326 
Q 2575 -91 1722 -91 
Q 1428 -91 1123 -41 
Q 819 9 494 109 
L 494 744 
Q 775 591 1075 516 
Q 1375 441 1709 441 
Q 2250 441 2565 725 
Q 2881 1009 2881 1497 
Q 2881 1984 2565 2268 
Q 2250 2553 1709 2553 
Q 1456 2553 1204 2497 
Q 953 2441 691 2322 
L 691 4666 
z
" transform="scale(0.015625)"/>
       </defs>
       <use xlink:href="#DejaVuSans-2212"/>
       <use xlink:href="#DejaVuSans-35" x="83.789062"/>
      </g>
     </g>
    </g>
    <g id="ytick_2">
     <g id="line2d_4">
      <g>
       <use xlink:href="#m6fb76ad5cf" x="64.005" y="76.457435" style="stroke: #000000"/>
      </g>
     </g>
     <g id="text_2">
      <!-- 0 -->
      <g transform="translate(50.325 82.536185) scale(0.16 -0.16)">
       <defs>
        <path id="DejaVuSans-30" d="M 2034 4250 
Q 1547 4250 1301 3770 
Q 1056 3291 1056 2328 
Q 1056 1369 1301 889 
Q 1547 409 2034 409 
Q 2525 409 2770 889 
Q 3016 1369 3016 2328 
Q 3016 3291 2770 3770 
Q 2525 4250 2034 4250 
z
M 2034 4750 
Q 2819 4750 3233 4129 
Q 3647 3509 3647 2328 
Q 3647 1150 3233 529 
Q 2819 -91 2034 -91 
Q 1250 -91 836 529 
Q 422 1150 422 2328 
Q 422 3509 836 4129 
Q 1250 4750 2034 4750 
z
" transform="scale(0.015625)"/>
       </defs>
       <use xlink:href="#DejaVuSans-30"/>
      </g>
     </g>
    </g>
    <g id="ytick_3">
     <g id="line2d_5">
      <g>
       <use xlink:href="#m6fb76ad5cf" x="64.005" y="35.585243" style="stroke: #000000"/>
      </g>
     </g>
     <g id="text_3">
      <!-- 5 -->
      <g transform="translate(50.325 41.663993) scale(0.16 -0.16)">
       <use xlink:href="#DejaVuSans-35"/>
      </g>
     </g>
    </g>
    <g id="ytick_4">
     <g id="line2d_6">
      <defs>
       <path id="ma636fed509" d="M 0 0 
L 3 0 
" style="stroke: #000000"/>
      </defs>
      <g>
       <use xlink:href="#ma636fed509" x="64.005" y="125.504064" style="stroke: #000000"/>
      </g>
     </g>
    </g>
    <g id="ytick_5">
     <g id="line2d_7">
      <g>
       <use xlink:href="#ma636fed509" x="64.005" y="109.155188" style="stroke: #000000"/>
      </g>
     </g>
    </g>
    <g id="ytick_6">
     <g id="line2d_8">
      <g>
       <use xlink:href="#ma636fed509" x="64.005" y="100.98075" style="stroke: #000000"/>
      </g>
     </g>
    </g>
    <g id="ytick_7">
     <g id="line2d_9">
      <g>
       <use xlink:href="#ma636fed509" x="64.005" y="92.806311" style="stroke: #000000"/>
      </g>
     </g>
    </g>
    <g id="ytick_8">
     <g id="line2d_10">
      <g>
       <use xlink:href="#ma636fed509" x="64.005" y="84.631873" style="stroke: #000000"/>
      </g>
     </g>
    </g>
    <g id="ytick_9">
     <g id="line2d_11">
      <g>
       <use xlink:href="#ma636fed509" x="64.005" y="68.282996" style="stroke: #000000"/>
      </g>
     </g>
    </g>
    <g id="ytick_10">
     <g id="line2d_12">
      <g>
       <use xlink:href="#ma636fed509" x="64.005" y="60.108558" style="stroke: #000000"/>
      </g>
     </g>
    </g>
    <g id="ytick_11">
     <g id="line2d_13">
      <g>
       <use xlink:href="#ma636fed509" x="64.005" y="51.93412" style="stroke: #000000"/>
      </g>
     </g>
    </g>
    <g id="ytick_12">
     <g id="line2d_14">
      <g>
       <use xlink:href="#ma636fed509" x="64.005" y="43.759681" style="stroke: #000000"/>
      </g>
     </g>
    </g>
    <g id="ytick_13">
     <g id="line2d_15">
      <g>
       <use xlink:href="#ma636fed509" x="64.005" y="27.410805" style="stroke: #000000"/>
      </g>
     </g>
    </g>
    <g id="ytick_14">
     <g id="line2d_16">
      <g>
       <use xlink:href="#ma636fed509" x="64.005" y="19.236367" style="stroke: #000000"/>
      </g>
     </g>
    </g>
    <g id="ytick_15">
     <g id="line2d_17">
      <g>
       <use xlink:href="#ma636fed509" x="64.005" y="11.061928" style="stroke: #000000"/>
      </g>
     </g>
    </g>
    <g id="text_4">
     <!-- $B$ (nT) -->
     <g transform="translate(29.59 91.564902) rotate(-90) scale(0.16 -0.16)">
      <defs>
       <path id="DejaVuSans-Oblique-42" d="M 1081 4666 
L 2694 4666 
Q 3350 4666 3675 4422 
Q 4000 4178 4000 3688 
Q 4000 3238 3720 2911 
Q 3441 2584 2988 2516 
Q 3375 2428 3569 2181 
Q 3763 1934 3763 1522 
Q 3763 819 3242 409 
Q 2722 0 1819 0 
L 172 0 
L 1081 4666 
z
M 1234 2228 
L 903 519 
L 1919 519 
Q 2491 519 2800 781 
Q 3109 1044 3109 1522 
Q 3109 1891 2904 2059 
Q 2700 2228 2247 2228 
L 1234 2228 
z
M 1606 4147 
L 1331 2741 
L 2272 2741 
Q 2775 2741 3058 2959 
Q 3341 3178 3341 3566 
Q 3341 3869 3150 4008 
Q 2959 4147 2541 4147 
L 1606 4147 
z
" transform="scale(0.015625)"/>
       <path id="DejaVuSans-20" transform="scale(0.015625)"/>
       <path id="DejaVuSans-28" d="M 1984 4856 
Q 1566 4138 1362 3434 
Q 1159 2731 1159 2009 
Q 1159 1288 1364 580 
Q 1569 -128 1984 -844 
L 1484 -844 
Q 1016 -109 783 600 
Q 550 1309 550 2009 
Q 550 2706 781 3412 
Q 1013 4119 1484 4856 
L 1984 4856 
z
" transform="scale(0.015625)"/>
       <path id="DejaVuSans-6e" d="M 3513 2113 
L 3513 0 
L 2938 0 
L 2938 2094 
Q 2938 2591 2744 2837 
Q 2550 3084 2163 3084 
Q 1697 3084 1428 2787 
Q 1159 2491 1159 1978 
L 1159 0 
L 581 0 
L 581 3500 
L 1159 3500 
L 1159 2956 
Q 1366 3272 1645 3428 
Q 1925 3584 2291 3584 
Q 2894 3584 3203 3211 
Q 3513 2838 3513 2113 
z
" transform="scale(0.015625)"/>
       <path id="DejaVuSans-54" d="M -19 4666 
L 3928 4666 
L 3928 4134 
L 2272 4134 
L 2272 0 
L 1638 0 
L 1638 4134 
L -19 4134 
L -19 4666 
z
" transform="scale(0.015625)"/>
       <path id="DejaVuSans-29" d="M 513 4856 
L 1013 4856 
Q 1481 4119 1714 3412 
Q 1947 2706 1947 2009 
Q 1947 1309 1714 600 
Q 1481 -109 1013 -844 
L 513 -844 
Q 928 -128 1133 580 
Q 1338 1288 1338 2009 
Q 1338 2731 1133 3434 
Q 928 4138 513 4856 
z
" transform="scale(0.015625)"/>
      </defs>
      <use xlink:href="#DejaVuSans-Oblique-42" transform="translate(0 0.125)"/>
      <use xlink:href="#DejaVuSans-20" transform="translate(68.603516 0.125)"/>
      <use xlink:href="#DejaVuSans-28" transform="translate(100.390625 0.125)"/>
      <use xlink:href="#DejaVuSans-6e" transform="translate(139.404297 0.125)"/>
      <use xlink:href="#DejaVuSans-54" transform="translate(202.783203 0.125)"/>
      <use xlink:href="#DejaVuSans-29" transform="translate(263.867188 0.125)"/>
     </g>
    </g>
   </g>
   <g id="line2d_18">
    <path d="M 64.005 72.094285 
L 67.251447 74.421308 
L 70.497871 75.303279 
L 73.744317 74.525352 
L 76.990764 74.534991 
L 80.237188 76.930354 
L 83.483634 77.657688 
L 86.730081 78.814274 
L 89.976505 78.533146 
L 93.222952 78.138708 
L 96.469398 79.565834 
L 99.715822 78.998373 
L 102.962269 77.795307 
L 106.208716 78.314914 
L 109.455139 78.192859 
L 112.701586 78.052148 
L 115.948033 78.748539 
L 119.194479 79.234472 
L 122.440903 78.186388 
L 125.68735 77.147228 
L 128.933797 77.099074 
L 132.18022 76.035538 
L 135.426667 77.479358 
L 138.673114 76.896179 
L 141.919561 76.064402 
L 145.165984 74.424149 
L 148.412431 72.951931 
L 151.658855 71.458339 
L 154.905302 72.817359 
L 158.151748 73.590199 
L 161.398172 71.988165 
L 164.644619 72.748757 
L 167.891065 73.499784 
L 171.137512 73.944857 
L 174.383936 73.169951 
L 177.630382 73.652888 
L 180.876829 74.038989 
L 184.123253 73.770809 
L 187.369699 75.326641 
L 190.616147 78.187442 
L 193.86257 78.384382 
L 197.109017 78.125805 
L 200.355464 77.041616 
L 203.60191 77.681772 
L 206.848334 79.219202 
L 210.094781 79.262496 
L 213.341204 77.975012 
L 216.587651 77.31948 
L 219.834098 77.419858 
L 223.080522 78.474858 
L 226.326968 78.962041 
L 229.573415 78.561042 
L 232.819862 79.092515 
L 236.066285 77.703902 
L 239.312732 78.047296 
L 242.559179 76.38859 
L 245.805603 75.106336 
L 249.052049 75.313785 
L 252.298496 73.935294 
L 255.54492 73.076354 
L 258.791367 72.646818 
L 262.037813 72.68699 
L 265.28426 71.058901 
L 268.530684 72.208015 
L 271.77713 71.376243 
L 275.023577 71.788597 
L 278.270001 73.503258 
L 281.516448 73.324903 
L 284.762872 73.122616 
L 288.009318 73.40326 
L 291.255765 74.776493 
L 294.502212 75.898263 
L 297.748635 76.935734 
L 300.995082 77.466613 
L 304.241529 78.149847 
L 307.487952 77.91647 
L 310.734399 76.931272 
L 313.980846 77.24902 
L 317.227293 77.908809 
L 320.473716 77.425062 
L 323.720163 78.082995 
L 326.96661 77.842052 
L 330.213033 76.906826 
L 333.45948 77.341439 
L 336.705927 76.867142 
L 339.952351 77.384496 
L 343.198797 78.04146 
L 346.445244 77.858348 
L 349.691668 77.494994 
L 352.938115 78.558902 
L 356.184561 79.22586 
L 359.430985 79.773944 
" clip-path="url(#pf52edaeaa5)" style="fill: none; stroke: #e5ae38; stroke-width: 2; stroke-linecap: square"/>
   </g>
   <g id="patch_3">
    <path d="M 64.005 131.049803 
L 64.005 3.6 
" style="fill: none; stroke: #000000; stroke-linejoin: miter; stroke-linecap: square"/>
   </g>
   <g id="line2d_19">
    <path d="M 64.005 16.257785 
L 67.251447 15.369199 
L 70.497871 15.453064 
L 73.744317 15.24336 
L 76.990764 15.766539 
L 80.237188 18.184883 
L 83.483634 17.119813 
L 86.730081 16.13949 
L 89.976505 14.748233 
L 93.222952 14.648039 
L 96.469398 14.439392 
L 99.715822 14.220817 
L 102.962269 14.502074 
L 106.208716 16.921764 
L 109.455139 18.639822 
L 112.701586 20.424181 
L 115.948033 21.056539 
L 119.194479 23.042013 
L 122.440903 23.639761 
L 125.68735 24.878196 
L 128.933797 24.881019 
L 132.18022 27.37955 
L 135.426667 28.324817 
L 138.673114 27.968214 
L 141.919561 29.306036 
L 145.165984 29.801292 
L 148.412431 29.161767 
L 151.658855 29.459906 
L 154.905302 29.796251 
L 158.151748 30.544107 
L 161.398172 31.230025 
L 164.644619 31.782783 
L 167.891065 30.410231 
L 171.137512 31.999965 
L 174.383936 31.240464 
L 177.630382 29.201581 
L 180.876829 26.651545 
L 184.123253 27.375405 
L 187.369699 26.592488 
L 190.616147 29.373407 
L 193.86257 32.685865 
L 197.109017 35.399133 
L 200.355464 35.806467 
L 203.60191 37.320748 
L 206.848334 37.233436 
L 210.094781 35.816527 
L 213.341204 34.150884 
L 216.587651 32.507906 
L 219.834098 34.633576 
L 223.080522 30.47626 
L 226.326968 34.702714 
L 229.573415 37.483589 
L 232.819862 35.084998 
L 236.066285 35.75409 
L 239.312732 35.58209 
L 242.559179 34.299844 
L 245.805603 33.617375 
L 249.052049 35.678145 
L 252.298496 39.752968 
L 255.54492 41.640257 
L 258.791367 45.145334 
L 262.037813 45.321797 
L 265.28426 47.774108 
L 268.530684 48.105905 
L 271.77713 49.561994 
L 275.023577 50.343572 
L 278.270001 50.645028 
L 281.516448 50.524118 
L 284.762872 51.065558 
L 288.009318 49.949006 
L 291.255765 48.544973 
L 294.502212 47.426875 
L 297.748635 45.551257 
L 300.995082 43.772206 
L 304.241529 40.021181 
L 307.487952 38.6091 
L 310.734399 39.754783 
L 313.980846 40.278533 
L 317.227293 40.047078 
L 320.473716 41.028316 
L 323.720163 40.865155 
L 326.96661 40.178738 
L 330.213033 40.695555 
L 333.45948 41.486483 
L 336.705927 42.633722 
L 339.952351 41.655216 
L 343.198797 42.21965 
L 346.445244 41.099409 
L 349.691668 41.157051 
L 352.938115 40.188873 
L 356.184561 39.362076 
L 359.430985 39.467712 
" clip-path="url(#pf52edaeaa5)" style="fill: none; stroke: #6d904f; stroke-width: 2; stroke-linecap: square"/>
   </g>
   <g id="legend_1">
    <g id="text_5">
     <!-- $B_l$ -->
     <g style="fill: #30a2da" transform="translate(366.657018 30.1575) scale(0.16 -0.16)">
      <defs>
       <path id="DejaVuSans-Oblique-6c" d="M 1172 4863 
L 1747 4863 
L 800 0 
L 225 0 
L 1172 4863 
z
" transform="scale(0.015625)"/>
      </defs>
      <use xlink:href="#DejaVuSans-Oblique-42" transform="translate(0 0.09375)"/>
      <use xlink:href="#DejaVuSans-Oblique-6c" transform="translate(68.603516 -16.3125) scale(0.7)"/>
     </g>
    </g>
    <g id="text_6">
     <!-- $B_m$ -->
     <g style="fill: #fc4f30" transform="translate(366.657018 53.6425) scale(0.16 -0.16)">
      <defs>
       <path id="DejaVuSans-Oblique-6d" d="M 5747 2113 
L 5338 0 
L 4763 0 
L 5166 2094 
Q 5191 2228 5203 2325 
Q 5216 2422 5216 2491 
Q 5216 2772 5059 2928 
Q 4903 3084 4622 3084 
Q 4203 3084 3875 2770 
Q 3547 2456 3450 1953 
L 3066 0 
L 2491 0 
L 2900 2094 
Q 2925 2209 2937 2307 
Q 2950 2406 2950 2484 
Q 2950 2769 2794 2926 
Q 2638 3084 2363 3084 
Q 1938 3084 1609 2770 
Q 1281 2456 1184 1953 
L 800 0 
L 225 0 
L 909 3500 
L 1484 3500 
L 1375 2956 
Q 1609 3263 1923 3423 
Q 2238 3584 2597 3584 
Q 2978 3584 3223 3384 
Q 3469 3184 3519 2828 
Q 3781 3197 4126 3390 
Q 4472 3584 4856 3584 
Q 5306 3584 5551 3325 
Q 5797 3066 5797 2591 
Q 5797 2488 5784 2364 
Q 5772 2241 5747 2113 
z
" transform="scale(0.015625)"/>
      </defs>
      <use xlink:href="#DejaVuSans-Oblique-42" transform="translate(0 0.09375)"/>
      <use xlink:href="#DejaVuSans-Oblique-6d" transform="translate(68.603516 -16.3125) scale(0.7)"/>
     </g>
    </g>
    <g id="text_7">
     <!-- $B_n$ -->
     <g style="fill: #e5ae38" transform="translate(366.657018 77.1275) scale(0.16 -0.16)">
      <defs>
       <path id="DejaVuSans-Oblique-6e" d="M 3566 2113 
L 3156 0 
L 2578 0 
L 2988 2091 
Q 3016 2238 3031 2350 
Q 3047 2463 3047 2528 
Q 3047 2791 2881 2937 
Q 2716 3084 2419 3084 
Q 1956 3084 1622 2776 
Q 1288 2469 1184 1941 
L 800 0 
L 225 0 
L 903 3500 
L 1478 3500 
L 1363 2950 
Q 1603 3253 1940 3418 
Q 2278 3584 2650 3584 
Q 3113 3584 3367 3334 
Q 3622 3084 3622 2631 
Q 3622 2519 3608 2391 
Q 3594 2263 3566 2113 
z
" transform="scale(0.015625)"/>
      </defs>
      <use xlink:href="#DejaVuSans-Oblique-42" transform="translate(0 0.09375)"/>
      <use xlink:href="#DejaVuSans-Oblique-6e" transform="translate(68.603516 -16.3125) scale(0.7)"/>
     </g>
    </g>
    <g id="text_8">
     <!-- $B_{total}$ -->
     <g style="fill: #6d904f" transform="translate(366.657018 100.6125) scale(0.16 -0.16)">
      <defs>
       <path id="DejaVuSans-Oblique-74" d="M 2706 3500 
L 2619 3053 
L 1472 3053 
L 1100 1153 
Q 1081 1047 1072 975 
Q 1063 903 1063 863 
Q 1063 663 1183 572 
Q 1303 481 1569 481 
L 2150 481 
L 2053 0 
L 1503 0 
Q 991 0 739 200 
Q 488 400 488 806 
Q 488 878 497 964 
Q 506 1050 525 1153 
L 897 3053 
L 409 3053 
L 500 3500 
L 978 3500 
L 1172 4494 
L 1747 4494 
L 1556 3500 
L 2706 3500 
z
" transform="scale(0.015625)"/>
       <path id="DejaVuSans-Oblique-6f" d="M 1625 -91 
Q 1009 -91 651 289 
Q 294 669 294 1325 
Q 294 1706 417 2101 
Q 541 2497 738 2766 
Q 1047 3184 1428 3384 
Q 1809 3584 2291 3584 
Q 2888 3584 3255 3212 
Q 3622 2841 3622 2241 
Q 3622 1825 3500 1412 
Q 3378 1000 3181 728 
Q 2875 309 2494 109 
Q 2113 -91 1625 -91 
z
M 891 1344 
Q 891 869 1089 633 
Q 1288 397 1691 397 
Q 2269 397 2648 901 
Q 3028 1406 3028 2181 
Q 3028 2634 2825 2865 
Q 2622 3097 2228 3097 
Q 1903 3097 1650 2945 
Q 1397 2794 1197 2484 
Q 1050 2253 970 1956 
Q 891 1659 891 1344 
z
" transform="scale(0.015625)"/>
       <path id="DejaVuSans-Oblique-61" d="M 3438 1997 
L 3047 0 
L 2472 0 
L 2578 531 
Q 2325 219 2001 64 
Q 1678 -91 1281 -91 
Q 834 -91 548 182 
Q 263 456 263 884 
Q 263 1497 752 1853 
Q 1241 2209 2100 2209 
L 2900 2209 
L 2931 2363 
Q 2938 2388 2941 2417 
Q 2944 2447 2944 2509 
Q 2944 2788 2717 2942 
Q 2491 3097 2081 3097 
Q 1800 3097 1504 3025 
Q 1209 2953 897 2809 
L 997 3341 
Q 1322 3463 1633 3523 
Q 1944 3584 2234 3584 
Q 2853 3584 3176 3315 
Q 3500 3047 3500 2534 
Q 3500 2431 3484 2292 
Q 3469 2153 3438 1997 
z
M 2816 1759 
L 2241 1759 
Q 1534 1759 1195 1570 
Q 856 1381 856 984 
Q 856 709 1029 553 
Q 1203 397 1509 397 
Q 1978 397 2328 733 
Q 2678 1069 2791 1631 
L 2816 1759 
z
" transform="scale(0.015625)"/>
      </defs>
      <use xlink:href="#DejaVuSans-Oblique-42" transform="translate(0 0.09375)"/>
      <use xlink:href="#DejaVuSans-Oblique-74" transform="translate(68.603516 -16.3125) scale(0.7)"/>
      <use xlink:href="#DejaVuSans-Oblique-6f" transform="translate(96.049805 -16.3125) scale(0.7)"/>
      <use xlink:href="#DejaVuSans-Oblique-74" transform="translate(138.876953 -16.3125) scale(0.7)"/>
      <use xlink:href="#DejaVuSans-Oblique-61" transform="translate(166.323242 -16.3125) scale(0.7)"/>
      <use xlink:href="#DejaVuSans-Oblique-6c" transform="translate(209.21875 -16.3125) scale(0.7)"/>
     </g>
    </g>
   </g>
  </g>
  <g id="axes_2">
   <g id="patch_4">
    <path d="M 64.005 276.17814 
L 361.387874 276.17814 
L 361.387874 148.728336 
L 64.005 148.728336 
z
" style="fill: #ffffff"/>
   </g>
   <g id="line2d_20">
    <path d="M 65.96189 226.36388 
L 69.208313 225.008098 
L 72.454759 214.698756 
L 75.701205 217.196261 
L 78.947629 217.25605 
L 82.194075 208.096846 
L 85.440522 217.469654 
L 88.686945 213.539967 
L 91.933392 215.626913 
L 95.179838 209.543924 
L 98.426261 212.918493 
L 101.672708 214.249826 
L 104.919155 218.33895 
L 108.165584 219.475806 
L 111.41203 229.404281 
L 114.658477 225.479326 
L 117.904924 231.987286 
L 121.151347 224.091859 
L 124.397794 247.274667 
L 127.64424 237.995813 
L 130.890663 229.228017 
L 134.13711 235.547429 
L 137.383557 234.325102 
L 140.630003 238.892874 
L 143.876426 235.013848 
L 147.122873 227.561019 
L 150.369296 226.940483 
L 153.615743 229.267856 
L 156.862189 220.85777 
L 160.108612 221.503871 
L 163.355059 218.147022 
L 166.601506 228.908053 
L 169.847952 234.873766 
L 173.094375 242.219803 
L 176.340822 235.069968 
L 179.587269 233.838127 
L 182.833698 212.328632 
L 186.080144 225.1924 
L 189.326591 215.136934 
L 192.573014 225.68933 
L 195.81946 198.042839 
L 199.065907 197.82314 
L 202.312354 196.200027 
L 205.558777 205.644261 
L 208.805223 204.381783 
L 212.051647 200.132056 
L 215.298093 213.132531 
L 218.54454 202.849539 
L 221.790963 203.696737 
L 225.03741 209.965972 
L 228.283856 213.986934 
L 231.530303 206.400109 
L 234.776726 201.184327 
L 238.023173 210.798427 
L 241.269619 211.339955 
L 244.516042 203.108916 
L 247.762489 201.984071 
L 251.008936 206.766619 
L 254.255359 196.253396 
L 257.501811 197.346016 
L 260.748258 206.765827 
L 263.994704 209.23379 
L 267.241128 200.303823 
L 270.487574 208.651985 
L 273.734021 197.739141 
L 276.980444 216.783301 
L 280.226891 207.734017 
L 283.473314 216.564198 
L 286.719761 209.989545 
L 289.966207 205.378006 
L 293.212654 211.007173 
L 296.459077 202.857685 
L 299.705523 219.427472 
L 302.95197 214.541552 
L 306.198393 208.471414 
L 309.444839 222.883392 
L 312.691287 204.856921 
L 315.937733 218.207891 
L 319.184156 216.398643 
L 322.430603 219.468271 
L 325.677049 227.065158 
L 328.923478 220.223448 
L 332.169925 224.817365 
L 335.416372 217.841998 
L 338.662795 216.015051 
L 341.909241 215.424662 
L 345.155688 215.43548 
L 348.402111 218.370707 
L 351.648558 215.852886 
L 354.895004 212.395497 
L 358.141428 218.398217 
L 361.387874 207.147532 
" clip-path="url(#p0934be158e)" style="fill: none; stroke: #30a2da; stroke-width: 2; stroke-linecap: square"/>
   </g>
   <g id="line2d_21">
    <path d="M 65.96189 198.189963 
L 69.208313 204.40427 
L 72.454759 192.301619 
L 75.701205 208.039937 
L 78.947629 200.43507 
L 82.194075 198.705369 
L 85.440522 203.166898 
L 88.686945 191.601975 
L 91.933392 194.309899 
L 95.179838 201.490134 
L 98.426261 191.400278 
L 101.672708 180.8323 
L 104.919155 188.867417 
L 108.165584 182.495542 
L 111.41203 188.458615 
L 114.658477 173.257468 
L 117.904924 171.119172 
L 121.151347 196.167708 
L 124.397794 179.799775 
L 127.64424 196.06053 
L 130.890663 195.89289 
L 134.13711 204.941793 
L 137.383557 208.422616 
L 140.630003 202.326556 
L 143.876426 213.314506 
L 147.122873 224.074949 
L 150.369296 216.629737 
L 153.615743 214.547574 
L 156.862189 225.071925 
L 160.108612 225.043584 
L 163.355059 235.144035 
L 166.601506 230.976975 
L 169.847952 230.695188 
L 173.094375 224.798303 
L 176.340822 245.361993 
L 179.587269 243.785721 
L 182.833698 256.825997 
L 186.080144 258.143536 
L 189.326591 260.841159 
L 192.573014 264.856269 
L 195.81946 265.557323 
L 199.065907 260.425918 
L 202.312354 254.262638 
L 205.558777 244.572466 
L 208.805223 259.096902 
L 212.051647 256.799814 
L 215.298093 247.069683 
L 218.54454 250.417809 
L 221.790963 245.964849 
L 225.03741 244.232889 
L 228.283856 242.232015 
L 231.530303 230.262264 
L 234.776726 239.593895 
L 238.023173 236.074469 
L 241.269619 235.883985 
L 244.516042 238.116866 
L 247.762489 231.58636 
L 251.008936 235.279131 
L 254.255359 227.375108 
L 257.501811 235.639876 
L 260.748258 226.808934 
L 263.994704 222.618691 
L 267.241128 219.033169 
L 270.487574 236.198046 
L 273.734021 224.845753 
L 276.980444 228.926522 
L 280.226891 230.021869 
L 283.473314 225.633606 
L 286.719761 229.318508 
L 289.966207 223.744883 
L 293.212654 223.494098 
L 296.459077 219.176856 
L 299.705523 229.559674 
L 302.95197 223.874026 
L 306.198393 224.214928 
L 309.444839 219.730343 
L 312.691287 222.614701 
L 315.937733 221.515672 
L 319.184156 224.245192 
L 322.430603 223.421128 
L 325.677049 213.835721 
L 328.923478 222.343555 
L 332.169925 225.54884 
L 335.416372 219.723079 
L 338.662795 235.141584 
L 341.909241 221.838673 
L 345.155688 220.800881 
L 348.402111 223.095428 
L 351.648558 222.011579 
L 354.895004 228.2157 
L 358.141428 227.534495 
L 361.387874 230.639764 
" clip-path="url(#p0934be158e)" style="fill: none; stroke: #fc4f30; stroke-width: 2; stroke-linecap: square"/>
   </g>
   <g id="matplotlib.axis_2">
    <g id="ytick_16">
     <g id="line2d_22">
      <g>
       <use xlink:href="#m6fb76ad5cf" x="64.005" y="218.651129" style="stroke: #000000"/>
      </g>
     </g>
     <g id="text_9">
      <!-- 0 -->
      <g transform="translate(50.325 224.729879) scale(0.16 -0.16)">
       <use xlink:href="#DejaVuSans-30"/>
      </g>
     </g>
    </g>
    <g id="ytick_17">
     <g id="line2d_23">
      <g>
       <use xlink:href="#m6fb76ad5cf" x="64.005" y="154.306112" style="stroke: #000000"/>
      </g>
     </g>
     <g id="text_10">
      <!-- 100 -->
      <g transform="translate(29.965 160.384862) scale(0.16 -0.16)">
       <defs>
        <path id="DejaVuSans-31" d="M 794 531 
L 1825 531 
L 1825 4091 
L 703 3866 
L 703 4441 
L 1819 4666 
L 2450 4666 
L 2450 531 
L 3481 531 
L 3481 0 
L 794 0 
L 794 531 
z
" transform="scale(0.015625)"/>
       </defs>
       <use xlink:href="#DejaVuSans-31"/>
       <use xlink:href="#DejaVuSans-30" x="63.623047"/>
       <use xlink:href="#DejaVuSans-30" x="127.246094"/>
      </g>
     </g>
    </g>
    <g id="ytick_18">
     <g id="line2d_24">
      <g>
       <use xlink:href="#ma636fed509" x="64.005" y="270.127143" style="stroke: #000000"/>
      </g>
     </g>
    </g>
    <g id="ytick_19">
     <g id="line2d_25">
      <g>
       <use xlink:href="#ma636fed509" x="64.005" y="257.258139" style="stroke: #000000"/>
      </g>
     </g>
    </g>
    <g id="ytick_20">
     <g id="line2d_26">
      <g>
       <use xlink:href="#ma636fed509" x="64.005" y="244.389136" style="stroke: #000000"/>
      </g>
     </g>
    </g>
    <g id="ytick_21">
     <g id="line2d_27">
      <g>
       <use xlink:href="#ma636fed509" x="64.005" y="231.520132" style="stroke: #000000"/>
      </g>
     </g>
    </g>
    <g id="ytick_22">
     <g id="line2d_28">
      <g>
       <use xlink:href="#ma636fed509" x="64.005" y="205.782126" style="stroke: #000000"/>
      </g>
     </g>
    </g>
    <g id="ytick_23">
     <g id="line2d_29">
      <g>
       <use xlink:href="#ma636fed509" x="64.005" y="192.913122" style="stroke: #000000"/>
      </g>
     </g>
    </g>
    <g id="ytick_24">
     <g id="line2d_30">
      <g>
       <use xlink:href="#ma636fed509" x="64.005" y="180.044119" style="stroke: #000000"/>
      </g>
     </g>
    </g>
    <g id="ytick_25">
     <g id="line2d_31">
      <g>
       <use xlink:href="#ma636fed509" x="64.005" y="167.175115" style="stroke: #000000"/>
      </g>
     </g>
    </g>
    <g id="text_11">
     <!-- $V$ (km/s) -->
     <g transform="translate(22.6375 246.053238) rotate(-90) scale(0.16 -0.16)">
      <defs>
       <path id="DejaVuSans-Oblique-56" d="M 1319 0 
L 500 4666 
L 1119 4666 
L 1797 653 
L 4063 4666 
L 4750 4666 
L 2053 0 
L 1319 0 
z
" transform="scale(0.015625)"/>
       <path id="DejaVuSans-6b" d="M 581 4863 
L 1159 4863 
L 1159 1991 
L 2875 3500 
L 3609 3500 
L 1753 1863 
L 3688 0 
L 2938 0 
L 1159 1709 
L 1159 0 
L 581 0 
L 581 4863 
z
" transform="scale(0.015625)"/>
       <path id="DejaVuSans-6d" d="M 3328 2828 
Q 3544 3216 3844 3400 
Q 4144 3584 4550 3584 
Q 5097 3584 5394 3201 
Q 5691 2819 5691 2113 
L 5691 0 
L 5113 0 
L 5113 2094 
Q 5113 2597 4934 2840 
Q 4756 3084 4391 3084 
Q 3944 3084 3684 2787 
Q 3425 2491 3425 1978 
L 3425 0 
L 2847 0 
L 2847 2094 
Q 2847 2600 2669 2842 
Q 2491 3084 2119 3084 
Q 1678 3084 1418 2786 
Q 1159 2488 1159 1978 
L 1159 0 
L 581 0 
L 581 3500 
L 1159 3500 
L 1159 2956 
Q 1356 3278 1631 3431 
Q 1906 3584 2284 3584 
Q 2666 3584 2933 3390 
Q 3200 3197 3328 2828 
z
" transform="scale(0.015625)"/>
       <path id="DejaVuSans-2f" d="M 1625 4666 
L 2156 4666 
L 531 -594 
L 0 -594 
L 1625 4666 
z
" transform="scale(0.015625)"/>
       <path id="DejaVuSans-73" d="M 2834 3397 
L 2834 2853 
Q 2591 2978 2328 3040 
Q 2066 3103 1784 3103 
Q 1356 3103 1142 2972 
Q 928 2841 928 2578 
Q 928 2378 1081 2264 
Q 1234 2150 1697 2047 
L 1894 2003 
Q 2506 1872 2764 1633 
Q 3022 1394 3022 966 
Q 3022 478 2636 193 
Q 2250 -91 1575 -91 
Q 1294 -91 989 -36 
Q 684 19 347 128 
L 347 722 
Q 666 556 975 473 
Q 1284 391 1588 391 
Q 1994 391 2212 530 
Q 2431 669 2431 922 
Q 2431 1156 2273 1281 
Q 2116 1406 1581 1522 
L 1381 1569 
Q 847 1681 609 1914 
Q 372 2147 372 2553 
Q 372 3047 722 3315 
Q 1072 3584 1716 3584 
Q 2034 3584 2315 3537 
Q 2597 3491 2834 3397 
z
" transform="scale(0.015625)"/>
      </defs>
      <use xlink:href="#DejaVuSans-Oblique-56" transform="translate(0 0.015625)"/>
      <use xlink:href="#DejaVuSans-20" transform="translate(68.408203 0.015625)"/>
      <use xlink:href="#DejaVuSans-28" transform="translate(100.195312 0.015625)"/>
      <use xlink:href="#DejaVuSans-6b" transform="translate(139.208984 0.015625)"/>
      <use xlink:href="#DejaVuSans-6d" transform="translate(197.119141 0.015625)"/>
      <use xlink:href="#DejaVuSans-2f" transform="translate(294.53125 0.015625)"/>
      <use xlink:href="#DejaVuSans-73" transform="translate(328.222656 0.015625)"/>
      <use xlink:href="#DejaVuSans-29" transform="translate(380.322266 0.015625)"/>
     </g>
    </g>
   </g>
   <g id="line2d_32">
    <path d="M 65.96189 212.173872 
L 69.208313 210.871558 
L 72.454759 213.346249 
L 75.701205 213.482501 
L 78.947629 209.347977 
L 82.194075 218.355435 
L 85.440522 225.314496 
L 88.686945 215.171107 
L 91.933392 209.081175 
L 95.179838 215.674768 
L 98.426261 217.723344 
L 101.672708 227.594169 
L 104.919155 220.889514 
L 108.165584 220.908211 
L 111.41203 226.700139 
L 114.658477 228.614 
L 117.904924 226.731236 
L 121.151347 230.334287 
L 124.397794 228.730314 
L 127.64424 224.752353 
L 130.890663 234.515387 
L 134.13711 223.992971 
L 137.383557 224.216699 
L 140.630003 222.668924 
L 143.876426 213.497048 
L 147.122873 217.11666 
L 150.369296 215.931047 
L 153.615743 224.924472 
L 156.862189 221.85441 
L 160.108612 224.90421 
L 163.355059 230.312703 
L 166.601506 228.460903 
L 169.847952 221.462028 
L 173.094375 233.637348 
L 176.340822 231.133226 
L 179.587269 230.40237 
L 182.833698 239.278481 
L 186.080144 237.545891 
L 189.326591 234.090948 
L 192.573014 241.895348 
L 195.81946 248.514681 
L 199.065907 251.236033 
L 202.312354 244.693756 
L 205.558777 240.824865 
L 208.805223 246.677683 
L 212.051647 246.144107 
L 215.298093 246.952285 
L 218.54454 247.125974 
L 221.790963 239.750757 
L 225.03741 243.1905 
L 228.283856 237.062705 
L 231.530303 241.126048 
L 234.776726 248.504263 
L 238.023173 246.146926 
L 241.269619 247.632384 
L 244.516042 238.690956 
L 247.762489 243.341749 
L 251.008936 245.631798 
L 254.255359 233.674728 
L 257.501811 241.698645 
L 260.748258 233.680918 
L 263.994704 235.499595 
L 267.241128 248.823564 
L 270.487574 234.559093 
L 273.734021 241.194066 
L 276.980444 242.696268 
L 280.226891 233.857284 
L 283.473314 240.374077 
L 286.719761 243.076761 
L 289.966207 232.118129 
L 293.212654 234.221947 
L 296.459077 244.890022 
L 299.705523 251.228502 
L 302.95197 247.796433 
L 306.198393 244.41567 
L 309.444839 243.042284 
L 312.691287 237.357032 
L 315.937733 247.01981 
L 319.184156 247.434335 
L 322.430603 242.519573 
L 325.677049 245.165359 
L 328.923478 245.916788 
L 332.169925 246.076142 
L 335.416372 242.96254 
L 338.662795 241.66475 
L 341.909241 241.898301 
L 345.155688 239.763213 
L 348.402111 238.418108 
L 351.648558 234.342506 
L 354.895004 238.158425 
L 358.141428 239.121774 
L 361.387874 232.908465 
" clip-path="url(#p0934be158e)" style="fill: none; stroke: #e5ae38; stroke-width: 2; stroke-linecap: square"/>
   </g>
   <g id="patch_5">
    <path d="M 64.005 276.17814 
L 64.005 148.728336 
" style="fill: none; stroke: #000000; stroke-linejoin: miter; stroke-linecap: square"/>
   </g>
   <g id="line2d_33">
    <path d="M 65.96189 195.845413 
L 69.208313 201.218235 
L 72.454759 191.483875 
L 75.701205 206.758747 
L 78.947629 198.14943 
L 82.194075 196.08315 
L 85.440522 201.752675 
L 88.686945 190.904215 
L 91.933392 192.321955 
L 95.179838 198.996622 
L 98.426261 190.78838 
L 101.672708 179.540858 
L 104.919155 188.781792 
L 108.165584 182.415773 
L 111.41203 185.605634 
L 114.658477 171.678078 
L 117.904924 168.626853 
L 121.151347 192.735846 
L 124.397794 169.352807 
L 127.64424 188.29035 
L 130.890663 188.961355 
L 134.13711 196.246528 
L 137.383557 199.124955 
L 140.630003 192.338345 
L 143.876426 200.684975 
L 147.122873 208.107953 
L 150.369296 209.695781 
L 153.615743 205.654634 
L 156.862189 211.144006 
L 160.108612 209.264829 
L 163.355059 198.445625 
L 166.601506 199.853186 
L 169.847952 198.251755 
L 173.094375 190.052931 
L 176.340822 184.904259 
L 179.587269 187.020696 
L 182.833698 174.801589 
L 186.080144 174.385449 
L 189.326591 173.587439 
L 192.573014 166.452039 
L 195.81946 159.349153 
L 199.065907 161.723859 
L 202.312354 169.14911 
L 205.558777 182.144022 
L 208.805223 167.416741 
L 212.051647 168.112608 
L 215.298093 178.166261 
L 218.54454 173.157954 
L 221.790963 181.036405 
L 225.03741 182.154018 
L 228.283856 188.37244 
L 231.530303 190.543693 
L 234.776726 178.217254 
L 238.023173 185.16596 
L 241.269619 184.149858 
L 244.516042 186.6813 
L 247.762489 186.174403 
L 251.008936 184.803108 
L 254.255359 190.305498 
L 257.501811 182.962008 
L 260.748258 197.82555 
L 263.994704 198.945835 
L 267.241128 183.336183 
L 270.487574 192.942366 
L 273.734021 187.284449 
L 276.980444 192.435844 
L 280.226891 196.748978 
L 283.473314 195.738322 
L 286.719761 190.62565 
L 289.966207 199.068428 
L 293.212654 200.641832 
L 296.459077 188.021261 
L 299.705523 184.287132 
L 302.95197 188.757718 
L 306.198393 190.395262 
L 309.444839 193.872001 
L 312.691287 195.073579 
L 315.937733 190.134745 
L 319.184156 189.242964 
L 322.430603 194.297008 
L 325.677049 190.420146 
L 328.923478 191.091696 
L 332.169925 189.707525 
L 335.416372 194.302649 
L 338.662795 190.216805 
L 341.909241 194.965658 
L 345.155688 197.187627 
L 348.402111 198.388753 
L 351.648558 202.361804 
L 354.895004 196.042535 
L 358.141428 196.334645 
L 361.387874 196.757483 
" clip-path="url(#p0934be158e)" style="fill: none; stroke: #6d904f; stroke-width: 2; stroke-linecap: square"/>
   </g>
   <g id="legend_2">
    <g id="text_12">
     <!-- $V_l$ -->
     <g style="fill: #30a2da" transform="translate(366.657018 175.285836) scale(0.16 -0.16)">
      <use xlink:href="#DejaVuSans-Oblique-56" transform="translate(0 0.09375)"/>
      <use xlink:href="#DejaVuSans-Oblique-6c" transform="translate(68.408203 -16.3125) scale(0.7)"/>
     </g>
    </g>
    <g id="text_13">
     <!-- $V_m$ -->
     <g style="fill: #fc4f30" transform="translate(366.657018 198.770836) scale(0.16 -0.16)">
      <use xlink:href="#DejaVuSans-Oblique-56" transform="translate(0 0.09375)"/>
      <use xlink:href="#DejaVuSans-Oblique-6d" transform="translate(68.408203 -16.3125) scale(0.7)"/>
     </g>
    </g>
    <g id="text_14">
     <!-- $V_n$ -->
     <g style="fill: #e5ae38" transform="translate(366.657018 222.255836) scale(0.16 -0.16)">
      <use xlink:href="#DejaVuSans-Oblique-56" transform="translate(0 0.09375)"/>
      <use xlink:href="#DejaVuSans-Oblique-6e" transform="translate(68.408203 -16.3125) scale(0.7)"/>
     </g>
    </g>
    <g id="text_15">
     <!-- $V_{total}$ -->
     <g style="fill: #6d904f" transform="translate(366.657018 245.740836) scale(0.16 -0.16)">
      <use xlink:href="#DejaVuSans-Oblique-56" transform="translate(0 0.09375)"/>
      <use xlink:href="#DejaVuSans-Oblique-74" transform="translate(68.408203 -16.3125) scale(0.7)"/>
      <use xlink:href="#DejaVuSans-Oblique-6f" transform="translate(95.854492 -16.3125) scale(0.7)"/>
      <use xlink:href="#DejaVuSans-Oblique-74" transform="translate(138.681641 -16.3125) scale(0.7)"/>
      <use xlink:href="#DejaVuSans-Oblique-61" transform="translate(166.12793 -16.3125) scale(0.7)"/>
      <use xlink:href="#DejaVuSans-Oblique-6c" transform="translate(209.023438 -16.3125) scale(0.7)"/>
     </g>
    </g>
   </g>
  </g>
  <g id="axes_3">
   <g id="patch_6">
    <path d="M 64.005 421.306476 
L 361.387874 421.306476 
L 361.387874 293.856673 
L 64.005 293.856673 
z
" style="fill: #ffffff"/>
   </g>
   <g id="line2d_34">
    <path d="M 67.251447 306.174063 
L 70.497871 306.04291 
L 73.744317 307.91827 
L 76.990764 309.703837 
L 80.237188 309.066031 
L 83.483634 310.330495 
L 86.730081 310.759265 
L 89.976505 305.488643 
L 93.222952 305.488024 
L 96.469398 305.437982 
L 99.715822 304.47749 
L 102.962269 304.582593 
L 106.208716 309.603662 
L 109.455139 314.439902 
L 112.701586 314.438292 
L 115.948033 312.011609 
L 119.194479 316.311177 
L 122.440903 319.633041 
L 125.68735 322.441933 
L 128.933797 324.570569 
L 132.18022 327.146696 
L 135.426667 327.319154 
L 138.673114 325.823728 
L 141.919561 328.694611 
L 145.165984 329.978397 
L 148.412431 327.12568 
L 151.658855 328.525054 
L 154.905302 329.532182 
L 158.151748 328.144097 
L 161.398172 330.785273 
L 164.644619 333.146648 
L 167.891065 331.889003 
L 171.137512 332.406521 
L 174.383936 329.868122 
L 177.630382 330.426766 
L 180.876829 328.510074 
L 184.123253 327.342006 
L 187.369699 327.755371 
L 190.616147 334.440899 
L 193.86257 339.91594 
L 197.109017 344.605507 
L 200.355464 344.418865 
L 203.60191 346.79816 
L 206.848334 350.397078 
L 210.094781 351.065865 
L 213.341204 352.369299 
L 216.587651 354.09178 
L 219.834098 357.294674 
L 223.080522 360.507774 
L 226.326968 366.141217 
L 229.573415 370.124322 
L 232.819862 375.437468 
L 236.066285 378.792786 
L 239.312732 382.16615 
L 242.559179 385.500311 
L 245.805603 388.865783 
L 249.052049 390.810237 
L 252.298496 389.773924 
L 255.54492 393.170742 
L 258.791367 394.075582 
L 262.037813 393.614554 
L 265.28426 394.683606 
L 268.530684 396.416847 
L 271.77713 396.836302 
L 275.023577 396.624265 
L 278.270001 397.185783 
L 281.516448 397.26542 
L 284.762872 396.735593 
L 288.009318 399.106018 
L 291.255765 399.985704 
L 294.502212 400.845395 
L 297.748635 404.818941 
L 300.995082 406.830737 
L 304.241529 409.272573 
L 307.487952 410.685659 
L 310.734399 409.491766 
L 313.980846 408.942282 
L 317.227293 410.221389 
L 320.473716 409.817512 
L 323.720163 408.387428 
L 326.96661 410.046944 
L 330.213033 410.086414 
L 333.45948 407.873573 
L 336.705927 406.738752 
L 339.952351 406.86602 
L 343.198797 405.843767 
L 346.445244 408.200114 
L 349.691668 408.172984 
L 352.938115 408.839937 
L 356.184561 409.392124 
L 359.430985 408.718395 
" clip-path="url(#p388c44900b)" style="fill: none; stroke: #30a2da; stroke-width: 2; stroke-linecap: square"/>
   </g>
   <g id="line2d_35">
    <path d="M 67.251447 379.552433 
L 70.497871 378.345411 
L 73.744317 377.062251 
L 76.990764 377.437994 
L 80.237188 376.552887 
L 83.483634 376.111123 
L 86.730081 377.115784 
L 89.976505 376.73745 
L 93.222952 376.452833 
L 96.469398 375.881248 
L 99.715822 376.510996 
L 102.962269 377.10729 
L 106.208716 377.823892 
L 109.455139 378.961314 
L 112.701586 380.048743 
L 115.948033 380.102607 
L 119.194479 380.295888 
L 122.440903 381.389193 
L 125.68735 383.917177 
L 128.933797 381.687116 
L 132.18022 381.005307 
L 135.426667 381.821978 
L 138.673114 382.086764 
L 141.919561 382.384694 
L 145.165984 381.082757 
L 148.412431 379.918348 
L 151.658855 380.053598 
L 154.905302 379.577461 
L 158.151748 378.3949 
L 161.398172 378.162957 
L 164.644619 378.716077 
L 167.891065 380.892167 
L 171.137512 382.492749 
L 174.383936 382.882926 
L 177.630382 381.70373 
L 180.876829 379.421886 
L 184.123253 377.491651 
L 187.369699 378.415477 
L 190.616147 377.9561 
L 193.86257 376.820653 
L 197.109017 372.704469 
L 200.355464 372.51351 
L 203.60191 373.194895 
L 206.848334 374.47046 
L 210.094781 373.868687 
L 213.341204 374.508138 
L 216.587651 375.430001 
L 219.834098 373.98967 
L 223.080522 374.727042 
L 226.326968 376.048038 
L 229.573415 375.903091 
L 232.819862 374.270325 
L 236.066285 374.436178 
L 239.312732 375.912981 
L 242.559179 375.189811 
L 245.805603 373.860926 
L 249.052049 374.161114 
L 252.298496 373.843333 
L 255.54492 372.392865 
L 258.791367 373.474089 
L 262.037813 375.110143 
L 265.28426 374.604083 
L 268.530684 374.096265 
L 271.77713 374.267599 
L 275.023577 374.510058 
L 278.270001 376.447457 
L 281.516448 375.969014 
L 284.762872 376.63515 
L 288.009318 375.211276 
L 291.255765 375.077679 
L 294.502212 375.116002 
L 297.748635 375.526235 
L 300.995082 377.503518 
L 304.241529 376.187396 
L 307.487952 376.694995 
L 310.734399 377.07013 
L 313.980846 375.70331 
L 317.227293 377.50414 
L 320.473716 377.535777 
L 323.720163 378.731897 
L 326.96661 379.189302 
L 330.213033 378.624354 
L 333.45948 378.623951 
L 336.705927 377.412508 
L 339.952351 377.084296 
L 343.198797 376.997909 
L 346.445244 377.285998 
L 349.691668 377.474989 
L 352.938115 376.764624 
L 356.184561 376.838432 
L 359.430985 376.6294 
" clip-path="url(#p388c44900b)" style="fill: none; stroke: #fc4f30; stroke-width: 2; stroke-linecap: square"/>
   </g>
   <g id="matplotlib.axis_3">
    <g id="ytick_26">
     <g id="line2d_36">
      <g>
       <use xlink:href="#m6fb76ad5cf" x="64.005" y="374.270325" style="stroke: #000000"/>
      </g>
     </g>
     <g id="text_16">
      <!-- 0 -->
      <g transform="translate(50.325 380.349075) scale(0.16 -0.16)">
       <use xlink:href="#DejaVuSans-30"/>
      </g>
     </g>
    </g>
    <g id="ytick_27">
     <g id="line2d_37">
      <g>
       <use xlink:href="#m6fb76ad5cf" x="64.005" y="295.21827" style="stroke: #000000"/>
      </g>
     </g>
     <g id="text_17">
      <!-- 500 -->
      <g transform="translate(29.965 301.29702) scale(0.16 -0.16)">
       <use xlink:href="#DejaVuSans-35"/>
       <use xlink:href="#DejaVuSans-30" x="63.623047"/>
       <use xlink:href="#DejaVuSans-30" x="127.246094"/>
      </g>
     </g>
    </g>
    <g id="ytick_28">
     <g id="line2d_38">
      <g>
       <use xlink:href="#ma636fed509" x="64.005" y="405.891147" style="stroke: #000000"/>
      </g>
     </g>
    </g>
    <g id="ytick_29">
     <g id="line2d_39">
      <g>
       <use xlink:href="#ma636fed509" x="64.005" y="390.080736" style="stroke: #000000"/>
      </g>
     </g>
    </g>
    <g id="ytick_30">
     <g id="line2d_40">
      <g>
       <use xlink:href="#ma636fed509" x="64.005" y="358.459914" style="stroke: #000000"/>
      </g>
     </g>
    </g>
    <g id="ytick_31">
     <g id="line2d_41">
      <g>
       <use xlink:href="#ma636fed509" x="64.005" y="342.649503" style="stroke: #000000"/>
      </g>
     </g>
    </g>
    <g id="ytick_32">
     <g id="line2d_42">
      <g>
       <use xlink:href="#ma636fed509" x="64.005" y="326.839092" style="stroke: #000000"/>
      </g>
     </g>
    </g>
    <g id="ytick_33">
     <g id="line2d_43">
      <g>
       <use xlink:href="#ma636fed509" x="64.005" y="311.028681" style="stroke: #000000"/>
      </g>
     </g>
    </g>
    <g id="text_18">
     <!-- $V_l$ (km/s) -->
     <g transform="translate(22.6375 392.941574) rotate(-90) scale(0.16 -0.16)">
      <use xlink:href="#DejaVuSans-Oblique-56" transform="translate(0 0.015625)"/>
      <use xlink:href="#DejaVuSans-Oblique-6c" transform="translate(68.408203 -16.390625) scale(0.7)"/>
      <use xlink:href="#DejaVuSans-20" transform="translate(90.59082 0.015625)"/>
      <use xlink:href="#DejaVuSans-28" transform="translate(122.37793 0.015625)"/>
      <use xlink:href="#DejaVuSans-6b" transform="translate(161.391602 0.015625)"/>
      <use xlink:href="#DejaVuSans-6d" transform="translate(219.301758 0.015625)"/>
      <use xlink:href="#DejaVuSans-2f" transform="translate(316.713867 0.015625)"/>
      <use xlink:href="#DejaVuSans-73" transform="translate(350.405273 0.015625)"/>
      <use xlink:href="#DejaVuSans-29" transform="translate(402.504883 0.015625)"/>
     </g>
    </g>
   </g>
   <g id="patch_7">
    <path d="M 64.005 421.306476 
L 64.005 293.856673 
" style="fill: none; stroke: #000000; stroke-linejoin: miter; stroke-linecap: square"/>
   </g>
   <g id="legend_3">
    <g id="text_19">
     <!-- $V_{A,l}$ -->
     <g style="fill: #30a2da" transform="translate(366.657018 320.414173) scale(0.16 -0.16)">
      <defs>
       <path id="DejaVuSans-Oblique-41" d="M 2356 4666 
L 3072 4666 
L 3938 0 
L 3278 0 
L 3084 1197 
L 984 1197 
L 325 0 
L -341 0 
L 2356 4666 
z
M 2584 4044 
L 1275 1722 
L 2988 1722 
L 2584 4044 
z
" transform="scale(0.015625)"/>
       <path id="DejaVuSans-2c" d="M 750 794 
L 1409 794 
L 1409 256 
L 897 -744 
L 494 -744 
L 750 256 
L 750 794 
z
" transform="scale(0.015625)"/>
      </defs>
      <use xlink:href="#DejaVuSans-Oblique-56" transform="translate(0 0.09375)"/>
      <use xlink:href="#DejaVuSans-Oblique-41" transform="translate(68.408203 -16.3125) scale(0.7)"/>
      <use xlink:href="#DejaVuSans-2c" transform="translate(116.293945 -16.3125) scale(0.7)"/>
      <use xlink:href="#DejaVuSans-Oblique-6c" transform="translate(152.182617 -16.3125) scale(0.7)"/>
     </g>
    </g>
    <g id="text_20">
     <!-- $dV_{i,l}$ -->
     <g style="fill: #fc4f30" transform="translate(366.657018 344.574173) scale(0.16 -0.16)">
      <defs>
       <path id="DejaVuSans-Oblique-64" d="M 2675 525 
Q 2444 222 2128 65 
Q 1813 -91 1428 -91 
Q 903 -91 598 267 
Q 294 625 294 1247 
Q 294 1766 478 2236 
Q 663 2706 1013 3078 
Q 1244 3325 1534 3454 
Q 1825 3584 2144 3584 
Q 2481 3584 2739 3421 
Q 2997 3259 3138 2956 
L 3513 4863 
L 4091 4863 
L 3144 0 
L 2566 0 
L 2675 525 
z
M 891 1350 
Q 891 897 1095 644 
Q 1300 391 1663 391 
Q 1931 391 2161 520 
Q 2391 650 2566 903 
Q 2750 1166 2856 1509 
Q 2963 1853 2963 2188 
Q 2963 2622 2758 2865 
Q 2553 3109 2194 3109 
Q 1922 3109 1687 2981 
Q 1453 2853 1288 2613 
Q 1106 2353 998 2009 
Q 891 1666 891 1350 
z
" transform="scale(0.015625)"/>
       <path id="DejaVuSans-Oblique-69" d="M 1172 4863 
L 1747 4863 
L 1606 4134 
L 1031 4134 
L 1172 4863 
z
M 909 3500 
L 1484 3500 
L 800 0 
L 225 0 
L 909 3500 
z
" transform="scale(0.015625)"/>
      </defs>
      <use xlink:href="#DejaVuSans-Oblique-64" transform="translate(0 0.015625)"/>
      <use xlink:href="#DejaVuSans-Oblique-56" transform="translate(63.476562 0.015625)"/>
      <use xlink:href="#DejaVuSans-Oblique-69" transform="translate(131.884766 -16.390625) scale(0.7)"/>
      <use xlink:href="#DejaVuSans-2c" transform="translate(151.333008 -16.390625) scale(0.7)"/>
      <use xlink:href="#DejaVuSans-Oblique-6c" transform="translate(187.22168 -16.390625) scale(0.7)"/>
     </g>
    </g>
   </g>
  </g>
  <g id="axes_4">
   <g id="patch_8">
    <path d="M 64.005 566.434812 
L 361.387874 566.434812 
L 361.387874 438.985009 
L 64.005 438.985009 
z
" style="fill: #ffffff"/>
   </g>
   <g id="line2d_44">
    <path d="M 65.96189 555.813995 
L 69.208313 555.813995 
L 72.454759 555.813995 
L 75.701206 529.261985 
L 78.947629 555.813978 
L 82.194076 555.813978 
L 85.440522 529.261985 
L 88.686945 555.813978 
L 91.933392 555.813978 
L 95.179839 555.813961 
L 98.426261 555.813961 
L 101.672708 555.813961 
L 104.919155 555.813961 
L 108.165584 529.261964 
L 111.41203 529.261964 
L 114.658477 555.813943 
L 117.904924 555.813943 
L 121.151347 529.261944 
L 124.397794 529.261944 
L 127.64424 502.709945 
L 130.890663 502.709945 
L 134.13711 502.709921 
L 137.383557 529.261923 
L 140.630003 529.261923 
L 143.876426 502.709921 
L 147.122873 529.261923 
L 150.369296 529.261923 
L 153.615743 502.709897 
L 156.862189 529.261903 
L 160.108612 529.261903 
L 163.355059 502.709897 
L 166.601506 502.709897 
L 169.847952 502.709873 
L 173.094375 529.261882 
L 176.340822 529.261882 
L 179.587269 502.709873 
L 182.833698 529.261882 
L 186.080144 529.261882 
L 189.326591 529.261862 
L 192.573014 529.261862 
L 195.81946 502.70985 
L 199.065907 502.70985 
L 202.312354 529.261862 
L 205.558777 449.605826 
L 208.805223 529.261841 
L 212.051647 529.261841 
L 215.298093 529.261841 
L 218.54454 529.261841 
L 221.790963 529.261841 
L 225.03741 529.261841 
L 228.283856 502.709802 
L 231.530303 529.26182 
L 234.776726 529.26182 
L 238.023173 529.26182 
L 241.269619 555.813839 
L 244.516042 529.26182 
L 247.762489 555.813821 
L 251.008936 555.813821 
L 254.255359 502.709779 
L 257.501811 529.2618 
L 260.748258 502.709779 
L 263.994704 502.709755 
L 267.241128 502.709755 
L 270.487574 502.709755 
L 273.734021 502.709755 
L 276.980444 502.709755 
L 280.226891 502.709755 
L 283.473314 476.157703 
L 286.71976 502.709731 
L 289.966207 502.709731 
L 293.212654 476.157703 
L 296.459077 502.709731 
L 299.705523 529.261759 
L 302.95197 502.709707 
L 306.198393 502.709707 
L 309.444839 502.709707 
L 312.691286 502.709707 
L 315.937733 502.709707 
L 319.184156 529.261738 
L 322.430603 502.709684 
L 325.67705 502.709684 
L 328.923478 529.261718 
L 332.169925 502.709684 
L 335.416372 502.709684 
L 338.662795 502.709684 
L 341.909241 476.157623 
L 345.155688 502.70966 
L 348.402111 502.70966 
L 351.648558 502.70966 
L 354.895004 502.70966 
L 358.141427 502.70966 
L 361.387874 502.709636 
" clip-path="url(#pbc3b1bd681)" style="fill: none; stroke: #30a2da; stroke-width: 2; stroke-linecap: square"/>
   </g>
   <g id="matplotlib.axis_4">
    <g id="xtick_1">
     <g id="line2d_45">
      <defs>
       <path id="m3897682cb6" d="M 0 0 
L 0 -6 
" style="stroke: #000000"/>
      </defs>
      <g>
       <use xlink:href="#m3897682cb6" x="106.382927" y="566.434812" style="stroke: #000000"/>
      </g>
     </g>
     <g id="text_21">
      <!-- 17:48 -->
      <g transform="translate(83.327927 582.092312) scale(0.16 -0.16)">
       <defs>
        <path id="DejaVuSans-37" d="M 525 4666 
L 3525 4666 
L 3525 4397 
L 1831 0 
L 1172 0 
L 2766 4134 
L 525 4134 
L 525 4666 
z
" transform="scale(0.015625)"/>
        <path id="DejaVuSans-3a" d="M 750 794 
L 1409 794 
L 1409 0 
L 750 0 
L 750 794 
z
M 750 3309 
L 1409 3309 
L 1409 2516 
L 750 2516 
L 750 3309 
z
" transform="scale(0.015625)"/>
        <path id="DejaVuSans-34" d="M 2419 4116 
L 825 1625 
L 2419 1625 
L 2419 4116 
z
M 2253 4666 
L 3047 4666 
L 3047 1625 
L 3713 1625 
L 3713 1100 
L 3047 1100 
L 3047 0 
L 2419 0 
L 2419 1100 
L 313 1100 
L 313 1709 
L 2253 4666 
z
" transform="scale(0.015625)"/>
        <path id="DejaVuSans-38" d="M 2034 2216 
Q 1584 2216 1326 1975 
Q 1069 1734 1069 1313 
Q 1069 891 1326 650 
Q 1584 409 2034 409 
Q 2484 409 2743 651 
Q 3003 894 3003 1313 
Q 3003 1734 2745 1975 
Q 2488 2216 2034 2216 
z
M 1403 2484 
Q 997 2584 770 2862 
Q 544 3141 544 3541 
Q 544 4100 942 4425 
Q 1341 4750 2034 4750 
Q 2731 4750 3128 4425 
Q 3525 4100 3525 3541 
Q 3525 3141 3298 2862 
Q 3072 2584 2669 2484 
Q 3125 2378 3379 2068 
Q 3634 1759 3634 1313 
Q 3634 634 3220 271 
Q 2806 -91 2034 -91 
Q 1263 -91 848 271 
Q 434 634 434 1313 
Q 434 1759 690 2068 
Q 947 2378 1403 2484 
z
M 1172 3481 
Q 1172 3119 1398 2916 
Q 1625 2713 2034 2713 
Q 2441 2713 2670 2916 
Q 2900 3119 2900 3481 
Q 2900 3844 2670 4047 
Q 2441 4250 2034 4250 
Q 1625 4250 1398 4047 
Q 1172 3844 1172 3481 
z
" transform="scale(0.015625)"/>
       </defs>
       <use xlink:href="#DejaVuSans-31"/>
       <use xlink:href="#DejaVuSans-37" x="63.623047"/>
       <use xlink:href="#DejaVuSans-3a" x="127.246094"/>
       <use xlink:href="#DejaVuSans-34" x="160.9375"/>
       <use xlink:href="#DejaVuSans-38" x="224.560547"/>
      </g>
     </g>
    </g>
    <g id="xtick_2">
     <g id="line2d_46">
      <g>
       <use xlink:href="#m3897682cb6" x="151.712656" y="566.434812" style="stroke: #000000"/>
      </g>
     </g>
     <g id="text_22">
      <!-- 17:49 -->
      <g transform="translate(128.657656 582.092312) scale(0.16 -0.16)">
       <defs>
        <path id="DejaVuSans-39" d="M 703 97 
L 703 672 
Q 941 559 1184 500 
Q 1428 441 1663 441 
Q 2288 441 2617 861 
Q 2947 1281 2994 2138 
Q 2813 1869 2534 1725 
Q 2256 1581 1919 1581 
Q 1219 1581 811 2004 
Q 403 2428 403 3163 
Q 403 3881 828 4315 
Q 1253 4750 1959 4750 
Q 2769 4750 3195 4129 
Q 3622 3509 3622 2328 
Q 3622 1225 3098 567 
Q 2575 -91 1691 -91 
Q 1453 -91 1209 -44 
Q 966 3 703 97 
z
M 1959 2075 
Q 2384 2075 2632 2365 
Q 2881 2656 2881 3163 
Q 2881 3666 2632 3958 
Q 2384 4250 1959 4250 
Q 1534 4250 1286 3958 
Q 1038 3666 1038 3163 
Q 1038 2656 1286 2365 
Q 1534 2075 1959 2075 
z
" transform="scale(0.015625)"/>
       </defs>
       <use xlink:href="#DejaVuSans-31"/>
       <use xlink:href="#DejaVuSans-37" x="63.623047"/>
       <use xlink:href="#DejaVuSans-3a" x="127.246094"/>
       <use xlink:href="#DejaVuSans-34" x="160.9375"/>
       <use xlink:href="#DejaVuSans-39" x="224.560547"/>
      </g>
     </g>
    </g>
    <g id="xtick_3">
     <g id="line2d_47">
      <g>
       <use xlink:href="#m3897682cb6" x="197.042383" y="566.434812" style="stroke: #000000"/>
      </g>
     </g>
     <g id="text_23">
      <!-- 17:50 -->
      <g transform="translate(173.987383 582.092312) scale(0.16 -0.16)">
       <use xlink:href="#DejaVuSans-31"/>
       <use xlink:href="#DejaVuSans-37" x="63.623047"/>
       <use xlink:href="#DejaVuSans-3a" x="127.246094"/>
       <use xlink:href="#DejaVuSans-35" x="160.9375"/>
       <use xlink:href="#DejaVuSans-30" x="224.560547"/>
      </g>
     </g>
    </g>
    <g id="xtick_4">
     <g id="line2d_48">
      <g>
       <use xlink:href="#m3897682cb6" x="242.372112" y="566.434812" style="stroke: #000000"/>
      </g>
     </g>
     <g id="text_24">
      <!-- 17:51 -->
      <g transform="translate(219.317112 582.092312) scale(0.16 -0.16)">
       <use xlink:href="#DejaVuSans-31"/>
       <use xlink:href="#DejaVuSans-37" x="63.623047"/>
       <use xlink:href="#DejaVuSans-3a" x="127.246094"/>
       <use xlink:href="#DejaVuSans-35" x="160.9375"/>
       <use xlink:href="#DejaVuSans-31" x="224.560547"/>
      </g>
     </g>
    </g>
    <g id="xtick_5">
     <g id="line2d_49">
      <g>
       <use xlink:href="#m3897682cb6" x="287.701839" y="566.434812" style="stroke: #000000"/>
      </g>
     </g>
     <g id="text_25">
      <!-- 17:52 -->
      <g transform="translate(264.646839 582.092312) scale(0.16 -0.16)">
       <defs>
        <path id="DejaVuSans-32" d="M 1228 531 
L 3431 531 
L 3431 0 
L 469 0 
L 469 531 
Q 828 903 1448 1529 
Q 2069 2156 2228 2338 
Q 2531 2678 2651 2914 
Q 2772 3150 2772 3378 
Q 2772 3750 2511 3984 
Q 2250 4219 1831 4219 
Q 1534 4219 1204 4116 
Q 875 4013 500 3803 
L 500 4441 
Q 881 4594 1212 4672 
Q 1544 4750 1819 4750 
Q 2544 4750 2975 4387 
Q 3406 4025 3406 3419 
Q 3406 3131 3298 2873 
Q 3191 2616 2906 2266 
Q 2828 2175 2409 1742 
Q 1991 1309 1228 531 
z
" transform="scale(0.015625)"/>
       </defs>
       <use xlink:href="#DejaVuSans-31"/>
       <use xlink:href="#DejaVuSans-37" x="63.623047"/>
       <use xlink:href="#DejaVuSans-3a" x="127.246094"/>
       <use xlink:href="#DejaVuSans-35" x="160.9375"/>
       <use xlink:href="#DejaVuSans-32" x="224.560547"/>
      </g>
     </g>
    </g>
    <g id="xtick_6">
     <g id="line2d_50">
      <g>
       <use xlink:href="#m3897682cb6" x="333.031568" y="566.434812" style="stroke: #000000"/>
      </g>
     </g>
     <g id="text_26">
      <!-- 17:53 -->
      <g transform="translate(309.976568 582.092312) scale(0.16 -0.16)">
       <defs>
        <path id="DejaVuSans-33" d="M 2597 2516 
Q 3050 2419 3304 2112 
Q 3559 1806 3559 1356 
Q 3559 666 3084 287 
Q 2609 -91 1734 -91 
Q 1441 -91 1130 -33 
Q 819 25 488 141 
L 488 750 
Q 750 597 1062 519 
Q 1375 441 1716 441 
Q 2309 441 2620 675 
Q 2931 909 2931 1356 
Q 2931 1769 2642 2001 
Q 2353 2234 1838 2234 
L 1294 2234 
L 1294 2753 
L 1863 2753 
Q 2328 2753 2575 2939 
Q 2822 3125 2822 3475 
Q 2822 3834 2567 4026 
Q 2313 4219 1838 4219 
Q 1578 4219 1281 4162 
Q 984 4106 628 3988 
L 628 4550 
Q 988 4650 1302 4700 
Q 1616 4750 1894 4750 
Q 2613 4750 3031 4423 
Q 3450 4097 3450 3541 
Q 3450 3153 3228 2886 
Q 3006 2619 2597 2516 
z
" transform="scale(0.015625)"/>
       </defs>
       <use xlink:href="#DejaVuSans-31"/>
       <use xlink:href="#DejaVuSans-37" x="63.623047"/>
       <use xlink:href="#DejaVuSans-3a" x="127.246094"/>
       <use xlink:href="#DejaVuSans-35" x="160.9375"/>
       <use xlink:href="#DejaVuSans-33" x="224.560547"/>
      </g>
     </g>
    </g>
    <g id="xtick_7">
     <g id="line2d_51">
      <defs>
       <path id="m4dcca7ee51" d="M 0 0 
L 0 -3 
" style="stroke: #000000"/>
      </defs>
      <g>
       <use xlink:href="#m4dcca7ee51" x="72.385631" y="566.434812" style="stroke: #000000"/>
      </g>
     </g>
    </g>
    <g id="xtick_8">
     <g id="line2d_52">
      <g>
       <use xlink:href="#m4dcca7ee51" x="83.718063" y="566.434812" style="stroke: #000000"/>
      </g>
     </g>
    </g>
    <g id="xtick_9">
     <g id="line2d_53">
      <g>
       <use xlink:href="#m4dcca7ee51" x="95.050495" y="566.434812" style="stroke: #000000"/>
      </g>
     </g>
    </g>
    <g id="xtick_10">
     <g id="line2d_54">
      <g>
       <use xlink:href="#m4dcca7ee51" x="117.715359" y="566.434812" style="stroke: #000000"/>
      </g>
     </g>
    </g>
    <g id="xtick_11">
     <g id="line2d_55">
      <g>
       <use xlink:href="#m4dcca7ee51" x="129.047791" y="566.434812" style="stroke: #000000"/>
      </g>
     </g>
    </g>
    <g id="xtick_12">
     <g id="line2d_56">
      <g>
       <use xlink:href="#m4dcca7ee51" x="140.380224" y="566.434812" style="stroke: #000000"/>
      </g>
     </g>
    </g>
    <g id="xtick_13">
     <g id="line2d_57">
      <g>
       <use xlink:href="#m4dcca7ee51" x="163.045088" y="566.434812" style="stroke: #000000"/>
      </g>
     </g>
    </g>
    <g id="xtick_14">
     <g id="line2d_58">
      <g>
       <use xlink:href="#m4dcca7ee51" x="174.37752" y="566.434812" style="stroke: #000000"/>
      </g>
     </g>
    </g>
    <g id="xtick_15">
     <g id="line2d_59">
      <g>
       <use xlink:href="#m4dcca7ee51" x="185.709952" y="566.434812" style="stroke: #000000"/>
      </g>
     </g>
    </g>
    <g id="xtick_16">
     <g id="line2d_60">
      <g>
       <use xlink:href="#m4dcca7ee51" x="208.374816" y="566.434812" style="stroke: #000000"/>
      </g>
     </g>
    </g>
    <g id="xtick_17">
     <g id="line2d_61">
      <g>
       <use xlink:href="#m4dcca7ee51" x="219.707248" y="566.434812" style="stroke: #000000"/>
      </g>
     </g>
    </g>
    <g id="xtick_18">
     <g id="line2d_62">
      <g>
       <use xlink:href="#m4dcca7ee51" x="231.03968" y="566.434812" style="stroke: #000000"/>
      </g>
     </g>
    </g>
    <g id="xtick_19">
     <g id="line2d_63">
      <g>
       <use xlink:href="#m4dcca7ee51" x="253.704544" y="566.434812" style="stroke: #000000"/>
      </g>
     </g>
    </g>
    <g id="xtick_20">
     <g id="line2d_64">
      <g>
       <use xlink:href="#m4dcca7ee51" x="265.036976" y="566.434812" style="stroke: #000000"/>
      </g>
     </g>
    </g>
    <g id="xtick_21">
     <g id="line2d_65">
      <g>
       <use xlink:href="#m4dcca7ee51" x="276.369408" y="566.434812" style="stroke: #000000"/>
      </g>
     </g>
    </g>
    <g id="xtick_22">
     <g id="line2d_66">
      <g>
       <use xlink:href="#m4dcca7ee51" x="299.034272" y="566.434812" style="stroke: #000000"/>
      </g>
     </g>
    </g>
    <g id="xtick_23">
     <g id="line2d_67">
      <g>
       <use xlink:href="#m4dcca7ee51" x="310.366704" y="566.434812" style="stroke: #000000"/>
      </g>
     </g>
    </g>
    <g id="xtick_24">
     <g id="line2d_68">
      <g>
       <use xlink:href="#m4dcca7ee51" x="321.699136" y="566.434812" style="stroke: #000000"/>
      </g>
     </g>
    </g>
    <g id="xtick_25">
     <g id="line2d_69">
      <g>
       <use xlink:href="#m4dcca7ee51" x="344.364" y="566.434812" style="stroke: #000000"/>
      </g>
     </g>
    </g>
    <g id="xtick_26">
     <g id="line2d_70">
      <g>
       <use xlink:href="#m4dcca7ee51" x="355.696432" y="566.434812" style="stroke: #000000"/>
      </g>
     </g>
    </g>
    <g id="text_27">
     <!-- time -->
     <g transform="translate(194.622687 601.577312) scale(0.16 -0.16)">
      <defs>
       <path id="DejaVuSans-74" d="M 1172 4494 
L 1172 3500 
L 2356 3500 
L 2356 3053 
L 1172 3053 
L 1172 1153 
Q 1172 725 1289 603 
Q 1406 481 1766 481 
L 2356 481 
L 2356 0 
L 1766 0 
Q 1100 0 847 248 
Q 594 497 594 1153 
L 594 3053 
L 172 3053 
L 172 3500 
L 594 3500 
L 594 4494 
L 1172 4494 
z
" transform="scale(0.015625)"/>
       <path id="DejaVuSans-69" d="M 603 3500 
L 1178 3500 
L 1178 0 
L 603 0 
L 603 3500 
z
M 603 4863 
L 1178 4863 
L 1178 4134 
L 603 4134 
L 603 4863 
z
" transform="scale(0.015625)"/>
       <path id="DejaVuSans-65" d="M 3597 1894 
L 3597 1613 
L 953 1613 
Q 991 1019 1311 708 
Q 1631 397 2203 397 
Q 2534 397 2845 478 
Q 3156 559 3463 722 
L 3463 178 
Q 3153 47 2828 -22 
Q 2503 -91 2169 -91 
Q 1331 -91 842 396 
Q 353 884 353 1716 
Q 353 2575 817 3079 
Q 1281 3584 2069 3584 
Q 2775 3584 3186 3129 
Q 3597 2675 3597 1894 
z
M 3022 2063 
Q 3016 2534 2758 2815 
Q 2500 3097 2075 3097 
Q 1594 3097 1305 2825 
Q 1016 2553 972 2059 
L 3022 2063 
z
" transform="scale(0.015625)"/>
      </defs>
      <use xlink:href="#DejaVuSans-74"/>
      <use xlink:href="#DejaVuSans-69" x="39.208984"/>
      <use xlink:href="#DejaVuSans-6d" x="66.992188"/>
      <use xlink:href="#DejaVuSans-65" x="164.404297"/>
     </g>
    </g>
    <g id="text_28">
     <!-- 2016-May-20 -->
     <g transform="translate(255.962874 600.577312) scale(0.16 -0.16)">
      <defs>
       <path id="DejaVuSans-36" d="M 2113 2584 
Q 1688 2584 1439 2293 
Q 1191 2003 1191 1497 
Q 1191 994 1439 701 
Q 1688 409 2113 409 
Q 2538 409 2786 701 
Q 3034 994 3034 1497 
Q 3034 2003 2786 2293 
Q 2538 2584 2113 2584 
z
M 3366 4563 
L 3366 3988 
Q 3128 4100 2886 4159 
Q 2644 4219 2406 4219 
Q 1781 4219 1451 3797 
Q 1122 3375 1075 2522 
Q 1259 2794 1537 2939 
Q 1816 3084 2150 3084 
Q 2853 3084 3261 2657 
Q 3669 2231 3669 1497 
Q 3669 778 3244 343 
Q 2819 -91 2113 -91 
Q 1303 -91 875 529 
Q 447 1150 447 2328 
Q 447 3434 972 4092 
Q 1497 4750 2381 4750 
Q 2619 4750 2861 4703 
Q 3103 4656 3366 4563 
z
" transform="scale(0.015625)"/>
       <path id="DejaVuSans-2d" d="M 313 2009 
L 1997 2009 
L 1997 1497 
L 313 1497 
L 313 2009 
z
" transform="scale(0.015625)"/>
       <path id="DejaVuSans-4d" d="M 628 4666 
L 1569 4666 
L 2759 1491 
L 3956 4666 
L 4897 4666 
L 4897 0 
L 4281 0 
L 4281 4097 
L 3078 897 
L 2444 897 
L 1241 4097 
L 1241 0 
L 628 0 
L 628 4666 
z
" transform="scale(0.015625)"/>
       <path id="DejaVuSans-61" d="M 2194 1759 
Q 1497 1759 1228 1600 
Q 959 1441 959 1056 
Q 959 750 1161 570 
Q 1363 391 1709 391 
Q 2188 391 2477 730 
Q 2766 1069 2766 1631 
L 2766 1759 
L 2194 1759 
z
M 3341 1997 
L 3341 0 
L 2766 0 
L 2766 531 
Q 2569 213 2275 61 
Q 1981 -91 1556 -91 
Q 1019 -91 701 211 
Q 384 513 384 1019 
Q 384 1609 779 1909 
Q 1175 2209 1959 2209 
L 2766 2209 
L 2766 2266 
Q 2766 2663 2505 2880 
Q 2244 3097 1772 3097 
Q 1472 3097 1187 3025 
Q 903 2953 641 2809 
L 641 3341 
Q 956 3463 1253 3523 
Q 1550 3584 1831 3584 
Q 2591 3584 2966 3190 
Q 3341 2797 3341 1997 
z
" transform="scale(0.015625)"/>
       <path id="DejaVuSans-79" d="M 2059 -325 
Q 1816 -950 1584 -1140 
Q 1353 -1331 966 -1331 
L 506 -1331 
L 506 -850 
L 844 -850 
Q 1081 -850 1212 -737 
Q 1344 -625 1503 -206 
L 1606 56 
L 191 3500 
L 800 3500 
L 1894 763 
L 2988 3500 
L 3597 3500 
L 2059 -325 
z
" transform="scale(0.015625)"/>
      </defs>
      <use xlink:href="#DejaVuSans-32"/>
      <use xlink:href="#DejaVuSans-30" x="63.623047"/>
      <use xlink:href="#DejaVuSans-31" x="127.246094"/>
      <use xlink:href="#DejaVuSans-36" x="190.869141"/>
      <use xlink:href="#DejaVuSans-2d" x="254.492188"/>
      <use xlink:href="#DejaVuSans-4d" x="290.576172"/>
      <use xlink:href="#DejaVuSans-61" x="376.855469"/>
      <use xlink:href="#DejaVuSans-79" x="438.134766"/>
      <use xlink:href="#DejaVuSans-2d" x="495.564453"/>
      <use xlink:href="#DejaVuSans-32" x="531.648438"/>
      <use xlink:href="#DejaVuSans-30" x="595.271484"/>
     </g>
    </g>
   </g>
   <g id="matplotlib.axis_5">
    <g id="ytick_34">
     <g id="line2d_71">
      <g>
       <use xlink:href="#m6fb76ad5cf" x="64.005" y="545.846408" style="stroke: #000000"/>
      </g>
     </g>
     <g id="text_29">
      <!-- 0.15 -->
      <g transform="translate(24.88 551.925158) scale(0.16 -0.16)">
       <defs>
        <path id="DejaVuSans-2e" d="M 684 794 
L 1344 794 
L 1344 0 
L 684 0 
L 684 794 
z
" transform="scale(0.015625)"/>
       </defs>
       <use xlink:href="#DejaVuSans-30"/>
       <use xlink:href="#DejaVuSans-2e" x="63.623047"/>
       <use xlink:href="#DejaVuSans-31" x="95.410156"/>
       <use xlink:href="#DejaVuSans-35" x="159.033203"/>
      </g>
     </g>
    </g>
    <g id="ytick_35">
     <g id="line2d_72">
      <g>
       <use xlink:href="#m6fb76ad5cf" x="64.005" y="493.845231" style="stroke: #000000"/>
      </g>
     </g>
     <g id="text_30">
      <!-- 0.20 -->
      <g transform="translate(24.88 499.923981) scale(0.16 -0.16)">
       <use xlink:href="#DejaVuSans-30"/>
       <use xlink:href="#DejaVuSans-2e" x="63.623047"/>
       <use xlink:href="#DejaVuSans-32" x="95.410156"/>
       <use xlink:href="#DejaVuSans-30" x="159.033203"/>
      </g>
     </g>
    </g>
    <g id="ytick_36">
     <g id="line2d_73">
      <g>
       <use xlink:href="#m6fb76ad5cf" x="64.005" y="441.844054" style="stroke: #000000"/>
      </g>
     </g>
     <g id="text_31">
      <!-- 0.25 -->
      <g transform="translate(24.88 447.922804) scale(0.16 -0.16)">
       <use xlink:href="#DejaVuSans-30"/>
       <use xlink:href="#DejaVuSans-2e" x="63.623047"/>
       <use xlink:href="#DejaVuSans-32" x="95.410156"/>
       <use xlink:href="#DejaVuSans-35" x="159.033203"/>
      </g>
     </g>
    </g>
    <g id="ytick_37">
     <g id="line2d_74">
      <g>
       <use xlink:href="#ma636fed509" x="64.005" y="556.246644" style="stroke: #000000"/>
      </g>
     </g>
    </g>
    <g id="ytick_38">
     <g id="line2d_75">
      <g>
       <use xlink:href="#ma636fed509" x="64.005" y="535.446173" style="stroke: #000000"/>
      </g>
     </g>
    </g>
    <g id="ytick_39">
     <g id="line2d_76">
      <g>
       <use xlink:href="#ma636fed509" x="64.005" y="525.045937" style="stroke: #000000"/>
      </g>
     </g>
    </g>
    <g id="ytick_40">
     <g id="line2d_77">
      <g>
       <use xlink:href="#ma636fed509" x="64.005" y="514.645702" style="stroke: #000000"/>
      </g>
     </g>
    </g>
    <g id="ytick_41">
     <g id="line2d_78">
      <g>
       <use xlink:href="#ma636fed509" x="64.005" y="504.245467" style="stroke: #000000"/>
      </g>
     </g>
    </g>
    <g id="ytick_42">
     <g id="line2d_79">
      <g>
       <use xlink:href="#ma636fed509" x="64.005" y="483.444996" style="stroke: #000000"/>
      </g>
     </g>
    </g>
    <g id="ytick_43">
     <g id="line2d_80">
      <g>
       <use xlink:href="#ma636fed509" x="64.005" y="473.044761" style="stroke: #000000"/>
      </g>
     </g>
    </g>
    <g id="ytick_44">
     <g id="line2d_81">
      <g>
       <use xlink:href="#ma636fed509" x="64.005" y="462.644525" style="stroke: #000000"/>
      </g>
     </g>
    </g>
    <g id="ytick_45">
     <g id="line2d_82">
      <g>
       <use xlink:href="#ma636fed509" x="64.005" y="452.24429" style="stroke: #000000"/>
      </g>
     </g>
    </g>
    <g id="text_32">
     <!-- $n_i$ (cm$^{-3}$) -->
     <g transform="translate(17.5525 539.109911) rotate(-90) scale(0.16 -0.16)">
      <defs>
       <path id="DejaVuSans-63" d="M 3122 3366 
L 3122 2828 
Q 2878 2963 2633 3030 
Q 2388 3097 2138 3097 
Q 1578 3097 1268 2742 
Q 959 2388 959 1747 
Q 959 1106 1268 751 
Q 1578 397 2138 397 
Q 2388 397 2633 464 
Q 2878 531 3122 666 
L 3122 134 
Q 2881 22 2623 -34 
Q 2366 -91 2075 -91 
Q 1284 -91 818 406 
Q 353 903 353 1747 
Q 353 2603 823 3093 
Q 1294 3584 2113 3584 
Q 2378 3584 2631 3529 
Q 2884 3475 3122 3366 
z
" transform="scale(0.015625)"/>
      </defs>
      <use xlink:href="#DejaVuSans-Oblique-6e" transform="translate(0 0.765625)"/>
      <use xlink:href="#DejaVuSans-Oblique-69" transform="translate(63.378906 -15.640625) scale(0.7)"/>
      <use xlink:href="#DejaVuSans-20" transform="translate(85.561523 0.765625)"/>
      <use xlink:href="#DejaVuSans-28" transform="translate(117.348633 0.765625)"/>
      <use xlink:href="#DejaVuSans-63" transform="translate(156.362305 0.765625)"/>
      <use xlink:href="#DejaVuSans-6d" transform="translate(211.342773 0.765625)"/>
      <use xlink:href="#DejaVuSans-2212" transform="translate(309.711914 39.046875) scale(0.7)"/>
      <use xlink:href="#DejaVuSans-33" transform="translate(368.364258 39.046875) scale(0.7)"/>
      <use xlink:href="#DejaVuSans-29" transform="translate(415.634766 0.765625)"/>
     </g>
    </g>
   </g>
   <g id="patch_9">
    <path d="M 64.005 566.434812 
L 64.005 438.985009 
" style="fill: none; stroke: #000000; stroke-linejoin: miter; stroke-linecap: square"/>
   </g>
   <g id="patch_10">
    <path d="M 64.005 566.434812 
L 361.387875 566.434812 
" style="fill: none; stroke: #000000; stroke-linejoin: miter; stroke-linecap: square"/>
   </g>
  </g>
 </g>
 <defs>
  <clipPath id="pf52edaeaa5">
   <rect x="64.005" y="3.6" width="297.382874" height="127.449803"/>
  </clipPath>
  <clipPath id="p0934be158e">
   <rect x="64.005" y="148.728336" width="297.382874" height="127.449803"/>
  </clipPath>
  <clipPath id="p388c44900b">
   <rect x="64.005" y="293.856673" width="297.382874" height="127.449803"/>
  </clipPath>
  <clipPath id="pbc3b1bd681">
   <rect x="64.005" y="438.985009" width="297.382874" height="127.449803"/>
  </clipPath>
 </defs>
</svg>
